<?xml version="1.0" encoding="utf-8"?>
<!DOCTYPE svg PUBLIC "-//W3C//DTD SVG 1.1//EN" "http://www.w3.org/Graphics/SVG/1.1/DTD/svg11.dtd">
<svg version="1.1" id="Layer_1" xmlns="http://www.w3.org/2000/svg" xmlns:xlink="http://www.w3.org/1999/xlink" x="0px" y="0px"
	 width="600px" height="114px" viewBox="0 0 600 114" enable-background="new 0 0 600 114" xml:space="preserve">
<path fill="white" d="M588.275,9.635c0-0.95-0.406-1.9-1.085-1.9c-4.068,0-8.272,0.814-12.343,0.814
	c-7.458,0-9.086-0.814-16.814-0.814c-0.68,0-1.085,0.95-1.085,1.9c0,1.22,0.271,1.897,0.813,2.034
	c8.139,1.085,9.086,2.984,9.086,6.238c0,2.035-0.813,3.527-2.17,5.832L544.472,55.88L525.35,23.739
	c-1.763-2.712-2.713-4.612-2.848-7.188c-0.137-3.797,5.967-4.476,5.967-4.476c0.542-0.136,0.949-0.95,0.949-2.034
	c0-0.95-0.271-2.035-0.949-2.035c-8.137,0-11.121,0.542-18.442,0.542c-7.054,0-11.528-0.814-17.902-0.814
	c-0.542,0-1.085,0.95-1.085,1.9c0,1.22,0.543,2.034,1.085,2.034c10.578,1.22,13.697,5.018,17.902,12.07l23.188,38.65v28.208
	c0,7.188-1.627,10.442-12.341,11.799c-0.542,0.137-1.085,0.949-1.085,2.034s0.543,2.034,1.085,2.034
	c8.815,0,10.85-0.813,18.986-0.813c8.271,0,8.949,0.679,17.766,0.679c0.407,0,0.949-0.813,0.949-2.034
	c0-1.084-0.542-1.763-0.949-1.897c-10.714-1.356-10.984-4.611-10.984-11.8V62.119l24.953-38.38
	c5.019-7.729,5.289-10.85,15.188-12.07C587.462,11.669,588.275,10.855,588.275,9.635"/>
<path fill="white" d="M488.732,27.671c-1.898-9.628-2.306-12.069-3.118-21.156c-5.289,1.22-18.173,2.034-42.449,2.034
	c-24.41,0-36.345-0.814-41.498-2.034c-2.169,8.681-2.848,12.478-5.831,21.156c-0.407,0.95,0.813,1.763,2.306,1.763
	c0,0,1.085,0,1.356-1.085c3.118-10.713,14.239-15.189,25.901-15.189h5.153c4.34,0,5.831,1.085,5.831,5.289v72.147
	c0,7.188-0.949,10.308-13.969,11.936c-1.084,0.271-1.084,2.034-1.084,2.034c0.136,1.897,1.084,1.897,1.084,1.897
	c8.815,0,12.478-0.813,20.749-0.813c10.172,0,12.749,0.813,19.529,0.813c1.085,0,1.085-1.897,1.085-1.897
	c0-1.898-1.085-2.034-1.085-2.034c-12.205-1.628-12.885-4.069-12.885-11.936V18.45c0-4.204,1.492-5.289,5.696-5.289h6.239
	c12.747,0,19.257,2.306,23.325,15.189c0.271,1.085,1.355,1.085,1.355,1.085C488.19,29.435,488.869,28.756,488.732,27.671"/>
<path fill="white" d="M389.462,104.566c0,0,0-2.17-1.085-2.034c-10.172-1.628-10.172-6.239-10.172-11.936V23.739
	c0-6.509-0.677-10.578,10.172-12.07c1.085,0,1.085-2.034,1.085-2.034s0-1.9-1.085-1.9c-7.323,0-9.9,0.814-16.952,0.814
	c-8.271,0-9.899-0.814-18.715-0.814c-1.085,0.137-1.085,1.9-1.085,1.9s0,1.897,1.085,2.034c11.527,1.763,11.799,4.747,11.799,12.07
	v66.859c0,7.188-0.271,9.766-11.799,11.936c-1.085,0.407-1.085,2.034-1.085,2.034s0,1.627,1.085,1.897
	c8.814,0,10.442-0.813,18.715-0.813c6.104,0,9.9,0.813,16.952,0.813C389.462,106.601,389.462,104.566,389.462,104.566"/>
<path fill="white" d="M343.895,77.85c0-26.039-44.347-29.971-44.347-50.449c0-10.308,6.238-17.224,16.546-17.224
	c8.138,0,17.9,3.932,19.528,13.833c0,0.542,0.407,1.084,2.034,1.084c0,0,1.627,0,1.764-1.084c0,0-0.679-3.39-2.17-15.868
	c-8.545,0-11.528-2.576-21.021-2.576c-17.899,0-29.021,13.29-29.021,27.529c0,27.53,44.754,29.43,44.754,52.212
	c0,11.257-5.561,18.716-17.359,18.716c-15.73,0-21.563-6.238-25.496-17.631c-0.407-1.085-1.763-1.085-1.763-1.085
	s-2.17,0-2.034,1.085c0,0,0.678,6.78,1.627,18.037c10.308,0,15.46,4.339,27.123,4.339C332.503,108.77,343.895,96.7,343.895,77.85"/>
<path fill="white" d="M110.228,9.635c0,0,0-1.493-0.813-1.628c-4.747,0-7.323,0.542-13.697,0.542
	c-5.561,0-10.85-0.814-15.732-0.814c-1.22,0.271-1.22,1.9-1.22,1.9s0,1.762,0.813,1.897c10.307,0.543,9.764,7.867,9.764,7.867
	c0.271,1.898-1.221,6.102-1.221,6.102L64.118,88.292l-23.19-64.553c-1.356-4.069-1.491-6.239-1.491-6.239
	c0-2.304-0.136-5.288,8.95-5.831c0.543,0,0.678-0.813,0.678-2.034c0-0.95-0.543-1.9-1.085-1.9c-6.239,0-11.12,0.814-18.58,0.814
	c-8.272,0-9.899-0.677-17.358-0.677c-0.949,0.677-0.949,1.898-0.949,1.898s0,1.355,1.355,2.035
	c9.765,1.22,11.121,2.169,15.597,14.239l29.7,81.641c0.407,1.084,1.898,1.084,1.898,1.084c1.357,0,1.628-0.678,1.899-1.084
	l33.497-81.641c3.797-9.358,4.611-13.291,13.697-14.105C110.228,11.397,110.228,9.635,110.228,9.635"/>
<path fill="white" d="M334.401,16.28h-0.137c-1.22-2.577-4.475-5.831-8.001-6.916V9.229c1.222,0,5.696,1.491,7.188,1.491
	L334.401,16.28z"/>
<path fill="white" d="M280.833,104.838c0,0,0-2.306-1.221-2.306c-16.002,0.136-22.376-15.19-37.43-37.432
	c0,0-4.611-6.51-8.272-6.917c16.815-1.897,26.987-14.104,26.987-24.953c0-15.596-10.984-25.497-32.005-25.497
	c-9.222,0-14.511,0.814-21.021,0.814c-9.629,0-13.968-0.814-19.257-0.814c0,0-1.085,0-1.085,1.9
	c-0.271,1.897,1.085,2.034,1.085,2.034c11.527,1.763,12.206,4.747,12.206,12.07v66.859c0,7.188-2.035,10.308-12.206,11.936
	c-1.085,0.136-1.085,2.034-1.085,2.034s0,1.763,1.085,1.897c4.746,0,11.527-0.813,18.714-0.813c6.103,0,10.579,0.813,18.987,0.813
	c0.271,0,1.084,0.136,1.084-1.897c0,0,0-2.034-1.084-2.034c-10.85-1.628-11.528-4.747-11.528-11.936V60.084
	c5.561,0,11.256,0.271,15.325,6.104c0,0,3.933,6.372,19.393,28.613c5.831,8.409,6.645,11.663,29.564,11.663
	C279.07,106.465,280.833,106.465,280.833,104.838 M245.844,33.232c0,14.918-5.56,22.783-21.156,22.783
	c-3.933,0-6.917-0.135-9.9-0.677V23.739c0-7.323,0.271-11.256,13.562-11.256C241.64,12.482,245.844,21.297,245.844,33.232"/>
<path fill="white" d="M294.802,102.261c-3.798-0.542-5.29-0.679-5.29-0.679l-0.677-8.001h0.135
	c1.763,4.882,5.832,8.544,5.832,8.544V102.261z"/>
<path fill="white" d="M180.341,104.566c0,0,0-1.492-1.22-2.034c-9.629-1.492-12.341-6.646-14.918-14.24L136.402,6.651
	c-0.407-1.085-1.899-1.085-1.899-1.085s-1.492,0-1.898,1.085l-31.191,81.641c-4.069,10.578-7.73,13.562-15.46,14.24
	c-1.492,0.136-1.492,2.034-1.492,2.034s0,2.033,0.95,1.897c5.425,0,9.493-0.813,14.917-0.813c6.51,0,10.171,0.813,15.596,0.813
	c1.084-0.136,1.084-1.897,1.084-1.897s0-1.898-0.813-2.034c-10.036-0.543-9.086-4.069-9.357-6.78c0,0-0.136-2.035,1.492-6.918
	l7.595-21.833h27.53c6.51,19.8,7.73,23.597,7.73,23.597s1.221,3.797,1.221,5.968c0,4.34-3.119,5.695-10.171,5.968
	c-0.813,0.271-0.813,2.034-0.813,2.034s0,1.627,1.084,1.897c4.747,0,12.477-0.813,19.936-0.813c3.662,0,11.799,0.813,16.816,0.813
	C179.256,106.465,180.205,106.465,180.341,104.566 M141.962,62.389h-24.411L130.3,26.044L141.962,62.389z"/>
</svg>
