<?xml version="1.0" standalone="no"?>
<!DOCTYPE svg PUBLIC "-//W3C//DTD SVG 1.1//EN" "http://www.w3.org/Graphics/SVG/1.1/DTD/svg11.dtd" >
<svg xmlns="http://www.w3.org/2000/svg">
<metadata></metadata>
<defs>
<font id="source_serif_proregular" horiz-adv-x="1021" >
<font-face units-per-em="2048" ascent="1495" descent="-553" />
<missing-glyph horiz-adv-x="477" />
<glyph unicode="&#xfb01;" horiz-adv-x="1263" d="M72 860v90l170 23q16 173 50.5 272t113.5 170q130 119 335 119q136 0 227.5 -56t92.5 -147q-8 -35 -36 -58.5t-69 -23.5q-69 0 -131 84l-86 117q-145 -9 -231 -98q-54 -56 -77.5 -146t-20.5 -237h409l211 37l31 -21l-6 -278v-277q0 -124 4 -328l141 -28v-74h-475v74 l154 28q4 204 4 328v105q0 169 -6 325h-463v-430q0 -108 4 -326l182 -30v-74h-526v74l162 28q4 218 4 328v430h-168z" />
<glyph unicode="&#xfb02;" horiz-adv-x="1253" d="M72 860v90l170 23q16 176 53 277t121 173q131 111 311 111q71 0 134 -18.5t97 -51.5l58 29l28 -16l-8 -291v-756q0 -110 4 -328l162 -28v-74h-506v74l162 28q4 218 4 328v899q-99 6 -217 103l-12 10q-72 -29 -121 -84q-59 -64 -83 -156t-19 -233h280v-109h-276v-430 q0 -108 4 -326l182 -30v-74h-526v74l162 28q4 218 4 328v430h-168z" />
<glyph horiz-adv-x="2048" />
<glyph horiz-adv-x="2048" />
<glyph unicode="&#xd;" horiz-adv-x="2048" />
<glyph unicode=" "  horiz-adv-x="477" />
<glyph unicode="&#x09;" horiz-adv-x="477" />
<glyph unicode="&#xa0;" horiz-adv-x="477" />
<glyph unicode="!" horiz-adv-x="591" d="M164 102q0 54 39 94t94 40t93 -39.5t38 -94.5t-38 -94t-93 -39t-94 39.5t-39 93.5zM178 1272q0 65 31.5 97t87.5 32q117 0 117 -129q0 -22 -2.5 -57t-8 -90t-10.5 -106.5t-14.5 -140.5t-16.5 -157l-28 -279h-76l-27 279q-8 82 -20 191.5t-18 166t-10.5 111.5t-4.5 82z " />
<glyph unicode="&#x22;" horiz-adv-x="729" d="M82 1380q0 129 106 129q49 0 77 -32t28 -97q0 -28 -6 -82.5t-12 -97t-16 -106.5t-11 -70l-23 -145h-75l-23 145q-1 6 -11 70t-16 106.5t-12 97t-6 82.5zM436 1380q0 129 107 129q104 0 104 -129q0 -28 -6 -82.5t-12 -97t-16 -106.5t-11 -70l-22 -145h-76l-23 145 q-1 6 -11 70t-16 106.5t-12 97t-6 82.5z" />
<glyph unicode="#" horiz-adv-x="1075" d="M51 367v168h211l41 266h-188v168h213l57 362h96l-57 -362h321l56 362h96l-55 -362h182v-168h-209l-41 -266h187v-168h-211l-58 -367h-96l57 367h-321l-58 -367h-96l58 367h-185zM358 535h320l41 266h-320z" />
<glyph unicode="$" d="M102 268q31 66 97 66q89 0 118 -135l25 -113q59 -14 141 -18v510l-22 8q-172 60 -258 152t-86 241t105 254t270 115v186h86v-186q139 -14 231.5 -94.5t101.5 -200.5q-26 -66 -94 -66q-92 0 -121 137l-24 113q-49 9 -94 12v-499l8 -2q200 -69 281 -166t81 -234 q0 -154 -101.5 -256t-279.5 -119v-209h-84v205q-161 5 -268 87.5t-113 211.5zM283 1022q0 -92 52 -148.5t157 -93.5v465q-95 -13 -152 -70t-57 -153zM567 72q101 14 158 75t57 160q0 89 -50 142.5t-165 97.5v-475z" />
<glyph unicode="%" horiz-adv-x="1765" d="M141 926q0 107 24.5 189.5t66 131t92 72.5t106.5 24t106 -24t90.5 -72.5t64.5 -131t24 -189.5t-24 -190t-64.5 -131.5t-90.5 -72.5t-106 -24q-120 0 -204.5 105t-84.5 313zM291 926q0 -104 11.5 -176t32.5 -108t43.5 -50t51.5 -14q30 0 52 14t42 50t30.5 107.5 t10.5 176.5t-10.5 176.5t-30.5 107.5t-42 50t-52 14q-23 0 -41.5 -8t-37.5 -30.5t-31.5 -60t-20.5 -101t-8 -148.5zM389 2l952 1368l64 -51l-952 -1370zM1049 406q0 208 84 312.5t204 104.5q56 0 106 -24t90.5 -72.5t64.5 -131t24 -189.5t-24 -190t-64.5 -131.5t-90.5 -72.5 t-106 -24q-120 0 -204 105t-84 313zM1198 406q0 -84 8 -147.5t20.5 -101.5t31.5 -61t37.5 -31t41.5 -8t42 8t37 31t30 61t19.5 101t7.5 148q0 105 -10.5 176.5t-31 107.5t-42.5 50t-52 14q-23 0 -41.5 -8t-37.5 -30.5t-31.5 -60t-20.5 -101t-8 -148.5z" />
<glyph unicode="&#x26;" horiz-adv-x="1478" d="M53 358q0 133 83 234.5t249 187.5l-18 19q-88 91 -130 160.5t-42 154.5q0 130 96.5 208.5t245.5 78.5q145 0 225 -72t80 -190q0 -102 -61 -184t-195 -160l151 -160q97 -105 226 -256q129 195 227 477l-201 29v84h441v-84l-142 -23q-112 -309 -272 -547q9 -11 164 -198 l221 -43v-74q-72 -20 -150 -20q-98 0 -157 29t-113 93q-24 28 -68 76q-170 -209 -419 -209q-192 0 -316.5 113t-124.5 276zM233 414q0 -81 34.5 -151.5t104.5 -116.5t160 -46q174 0 322 148q-157 187 -227 264q-38 42 -104 116t-85 95q-205 -110 -205 -309zM340 1153 q0 -100 115 -221l77 -82q175 132 175 283q0 89 -50.5 141.5t-128.5 52.5q-80 0 -134 -49t-54 -125z" />
<glyph unicode="'" horiz-adv-x="374" d="M82 1380q0 129 106 129q49 0 77 -32t28 -97q0 -28 -6 -82.5t-12 -97t-16 -106.5t-11 -70l-23 -145h-75l-23 145q-1 6 -11 70t-16 106.5t-12 97t-6 82.5z" />
<glyph unicode="(" horiz-adv-x="694" d="M160 569q0 562 430 961l53 -43q-178 -258 -246.5 -463.5t-68.5 -454.5t68.5 -453.5t246.5 -463.5l-53 -43q-430 399 -430 960z" />
<glyph unicode=")" horiz-adv-x="694" d="M51 -348q178 259 247 464t69 453t-69 453.5t-247 464.5l53 43q431 -400 431 -961q0 -560 -431 -960z" />
<glyph unicode="*" horiz-adv-x="901" d="M41 1212q0 31 19 52.5t49 21.5q14 0 30.5 -4.5t40 -15t42 -20t53.5 -27.5t57 -29l88 -43l-14 96q-27 177 -27 213q0 74 72 74q33 0 53 -18t20 -56q0 -16 -30 -213l-15 -96l88 43q151 76 190 87q22 7 36 7q29 0 48 -20.5t19 -51.5q0 -13 -3 -23.5t-11.5 -18.5t-17 -14.5 t-25 -12t-29.5 -9t-37.5 -7.5t-41 -6.5t-48 -7t-51.5 -7.5l-98 -16l69 -72q18 -18 52 -51t48.5 -47.5t33 -36.5t25.5 -38.5t7 -33.5q0 -29 -20.5 -47.5t-48.5 -18.5q-10 0 -19.5 3t-19 10t-17.5 14.5t-17.5 21.5t-16.5 25.5t-17.5 31.5t-18 35t-20.5 40.5t-22 42.5l-45 86 l-45 -86q-10 -19 -27.5 -54t-25.5 -50.5t-22 -40t-23 -35t-21.5 -23t-24.5 -17t-26 -4.5q-28 0 -49 18.5t-21 47.5q0 16 7 33t25 38t34 37t48 47t52 52l69 72l-96 16q-158 24 -191 34q-69 28 -73 72z" />
<glyph unicode="+" horiz-adv-x="1085" d="M59 616v119h420v449h127v-449h420v-119h-420v-458h-127v458h-420z" />
<glyph unicode="," horiz-adv-x="614" d="M12 -393q114 57 190 133.5t111 185.5l-75 58q-78 64 -78 149q0 55 33.5 92t93.5 37q65 0 129 -59q22 -80 22 -150q0 -89 -34 -173.5t-91 -149.5t-127 -114t-145 -77z" />
<glyph unicode="-" horiz-adv-x="638" d="M82 446v136h475v-136h-475z" />
<glyph unicode="." horiz-adv-x="614" d="M162 115q0 62 42 104.5t103 42.5t103.5 -42.5t42.5 -104.5q0 -60 -42.5 -103t-103.5 -43t-103 43t-42 103z" />
<glyph unicode="/" horiz-adv-x="675" d="M4 -328l547 1782h121l-547 -1782h-121z" />
<glyph unicode="0" d="M84 659q0 148 24 266.5t64 196.5t96 130.5t117 75t129 22.5q67 0 127.5 -22.5t116 -75t96 -130.5t64.5 -196.5t24 -266.5t-24 -266.5t-64.5 -196.5t-96 -130t-116 -74.5t-127.5 -22.5q-68 0 -129 22.5t-117 74.5t-96 130t-64 196.5t-24 266.5zM274 659q0 -140 13 -246.5 t34.5 -172t53.5 -107t65 -57t74 -15.5q238 0 238 598t-238 598q-51 0 -91.5 -26.5t-75.5 -90t-54 -185.5t-19 -296z" />
<glyph unicode="1" d="M152 0v74l286 49q4 204 4 309v739l-266 -22v84l420 106l29 -18l-9 -293v-596q0 -54 5 -309l288 -49v-74h-757z" />
<glyph unicode="2" d="M90 1034q10 104 70 177t147.5 106t194.5 33q191 0 285 -93.5t94 -252.5q0 -136 -80.5 -264t-294.5 -332l-248 -238h682v-170h-840v135l316 324q280 287 280 524q0 126 -66 200t-179 74q-52 0 -103 -10l-37 -141q-20 -75 -46.5 -107t-69.5 -32q-69 0 -105 67z" />
<glyph unicode="3" d="M90 260q36 68 105 68q49 0 73.5 -33t44.5 -113l29 -106q64 -15 113 -15q149 0 227 79t78 220q0 135 -78.5 210t-232.5 75h-101v105h82q139 0 216 71t77 201q0 112 -66 173.5t-186 61.5q-45 0 -92 -8l-29 -106q-20 -73 -45 -103t-76 -30q-77 0 -102 75q27 129 130.5 197 t248.5 68q179 0 286 -89t107 -233q0 -112 -69.5 -199t-194.5 -131q153 -30 230 -116t77 -217q0 -169 -127 -282.5t-334 -113.5q-158 0 -262 71.5t-129 219.5z" />
<glyph unicode="4" d="M47 397v107l612 835h119v-813h213v-129h-213v-397h-170v397h-561zM174 526h434v600z" />
<glyph unicode="5" d="M78 258q27 70 104 70q46 0 71.5 -29.5t45.5 -110.5l31 -110q61 -17 119 -17q146 0 225.5 89.5t79.5 242.5q0 151 -85 233.5t-235 82.5q-86 0 -190 -23l-58 16l43 617h670v-170h-577l-25 -340q95 25 190 25q204 0 327.5 -110t123.5 -310q0 -199 -131 -322t-346 -123 q-157 0 -254.5 73.5t-128.5 215.5z" />
<glyph unicode="6" d="M80 555q0 151 50.5 286.5t146 244t246 179.5t337.5 87l12 -66q-298 -72 -444.5 -226.5t-161.5 -389.5q131 143 301 143q169 0 273 -108t104 -291q0 -213 -117 -329t-305 -116q-206 0 -324 155t-118 431zM264 588q3 -265 72 -396t192 -131q108 0 171 83t63 239 q0 157 -64 232t-176 75q-148 0 -258 -102z" />
<glyph unicode="7" d="M104 1149v170h844v-105l-487 -1214h-168l-21 20l537 1129h-705z" />
<glyph unicode="8" d="M88 303q0 114 70 197t213 155q-236 134 -236 355q0 155 109.5 247.5t271.5 92.5q158 0 255 -88.5t97 -227.5q0 -187 -231 -327q153 -78 224 -167.5t71 -220.5q0 -154 -122 -252t-310 -98q-181 0 -296.5 87t-115.5 247zM258 315q0 -112 73 -184t187 -72q107 0 173.5 70.5 t66.5 175.5q0 90 -66 156.5t-243 152.5q-99 -60 -145 -129.5t-46 -169.5zM297 1053q0 -88 56.5 -162t201.5 -146q89 68 124.5 133t35.5 152q0 98 -54 162.5t-149 64.5q-89 0 -152 -56.5t-63 -147.5z" />
<glyph unicode="9" d="M59 926q0 190 121.5 307t315.5 117q200 0 314 -144t114 -391q0 -151 -43.5 -283.5t-131.5 -245.5t-232.5 -197t-336.5 -128l-20 76q272 89 404.5 229.5t162.5 356.5q-108 -99 -268 -99q-170 0 -285 110t-115 292zM242 946q0 -151 74 -224t196 -73q131 0 223 80q2 18 2 53 q0 239 -66.5 357t-183.5 118q-105 0 -175 -81t-70 -230z" />
<glyph unicode=":" horiz-adv-x="614" d="M162 115q0 62 42 104.5t103 42.5t103.5 -42.5t42.5 -104.5q0 -60 -42.5 -103t-103.5 -43t-103 43t-42 103zM162 856q0 62 42 105t103 43t103.5 -43t42.5 -105q0 -60 -42.5 -102.5t-103.5 -42.5t-103 42.5t-42 102.5z" />
<glyph unicode=";" horiz-adv-x="614" d="M12 -393q114 57 190 133.5t111 185.5l-75 58q-78 64 -78 149q0 55 33.5 92t93.5 37q65 0 129 -59q22 -80 22 -150q0 -89 -34 -173.5t-91 -149.5t-127 -114t-145 -77zM162 856q0 62 42 105t103 43t103.5 -43t42.5 -105q0 -60 -42.5 -102.5t-103.5 -42.5t-103 42.5 t-42 102.5z" />
<glyph unicode="&#x3c;" horiz-adv-x="1085" d="M115 627v96l788 461l62 -111l-707 -397l707 -400l-62 -110z" />
<glyph unicode="=" horiz-adv-x="1085" d="M59 412v118h967v-118h-967zM59 821v119h967v-119h-967z" />
<glyph unicode="&#x3e;" horiz-adv-x="1085" d="M121 276l706 400l-706 397l61 111l789 -461v-96l-789 -461z" />
<glyph unicode="?" horiz-adv-x="858" d="M135 1288q0 86 113 113q73 -8 153.5 -44t152 -93t118.5 -142t47 -178q0 -191 -203 -258l-74 -24q-64 -21 -81 -41.5t-17 -71.5l-2 -111h-76l-26 86q-29 98 -29 140q0 48 36 79t126 60l116 39q117 40 117 141q0 69 -51 150q-47 7 -114.5 18t-111 18t-44.5 7 q-85 16 -117.5 43t-32.5 69zM172 102q0 54 39 94t94 40t94 -40t39 -94t-39 -93.5t-94 -39.5t-94 39.5t-39 93.5z" />
<glyph unicode="@" horiz-adv-x="1720" d="M72 418q0 189 70 357.5t190 289.5t288 191.5t357 70.5q206 0 359.5 -84.5t233 -234t79.5 -344.5q0 -115 -29 -212.5t-77 -163.5t-110 -112.5t-126.5 -68t-128.5 -21.5q-87 0 -140.5 42t-64.5 116q-144 -158 -275 -158q-94 0 -157.5 70t-63.5 211q0 115 47.5 226 t124.5 200q142 172 309 172q77 0 140 -52l98 50l39 -33l-119 -586q-15 -75 14.5 -117.5t96.5 -42.5q56 0 107 28.5t94.5 85.5t69.5 156t26 226q0 131 -43 238t-118 177t-177.5 108t-222.5 38q-163 0 -307 -66.5t-243 -177.5t-156.5 -258.5t-57.5 -306.5q0 -162 53 -291.5 t144.5 -211t210 -124.5t253.5 -43q182 0 320 66l26 -61q-171 -89 -389 -89q-158 0 -293 47.5t-236 138.5t-158.5 233t-57.5 321zM621 406q0 -197 143 -197q44 0 91.5 23t115.5 81q1 5 6 35l90 457q-52 63 -125 63q-51 0 -106.5 -30.5t-102.5 -92.5q-112 -154 -112 -339z" />
<glyph unicode="A" horiz-adv-x="1359" d="M10 0v84l174 27l439 1259h122l441 -1268l153 -18v-84h-557v84l201 25l-115 337h-471l-114 -335l198 -27v-84h-471zM430 543h406l-201 592z" />
<glyph unicode="B" horiz-adv-x="1288" d="M90 0v84l189 22q4 172 4 529v100q0 353 -4 529l-189 22v84h594q210 0 328 -92.5t118 -243.5q0 -116 -77 -201.5t-236 -119.5q194 -28 287.5 -118t93.5 -220q0 -73 -30.5 -137.5t-93 -119t-172 -86.5t-253.5 -32h-559zM475 662q0 -388 4 -566h125q391 0 391 279 q0 145 -97 216t-308 71h-115zM475 756h109q186 0 270 63t84 203q0 136 -76.5 194t-236.5 58h-146q-4 -170 -4 -518z" />
<glyph unicode="C" horiz-adv-x="1292" d="M96 684q0 205 89.5 369t248.5 256t357 92q223 0 393 -98l8 -299h-129l-41 243q-98 49 -209 49q-104 0 -193.5 -40t-157 -115.5t-106.5 -193t-39 -263.5q0 -291 132.5 -451.5t349.5 -160.5q127 0 243 55l41 238h129l-8 -297q-182 -99 -413 -99q-205 0 -363.5 91 t-245 253.5t-86.5 370.5z" />
<glyph unicode="D" horiz-adv-x="1452" d="M90 0v84l189 22q4 174 4 553v76q0 353 -4 529l-189 22v84h606q142 0 262.5 -45.5t209 -130.5t138.5 -215.5t50 -292.5t-55 -293.5t-151 -216.5t-223 -130.5t-272 -45.5h-565zM475 659q0 -383 4 -563h183q217 0 344 153t127 435q0 283 -128 436.5t-346 153.5h-180 q-4 -176 -4 -539v-76z" />
<glyph unicode="E" horiz-adv-x="1236" d="M90 0v84l189 22q4 172 4 529v100q0 353 -4 529l-189 22v84h1020l14 -364h-116l-45 260h-484q-4 -170 -4 -518h305l29 196h92v-485h-92l-27 192h-307q0 -373 4 -549h525l45 263h116l-14 -365h-1061z" />
<glyph unicode="F" horiz-adv-x="1185" d="M90 0v84l189 22q4 172 4 529v100q0 353 -4 529l-189 22v84h1020l14 -364h-116l-45 260h-484q-4 -170 -4 -518h320l28 196h95v-506h-95l-28 213h-320q0 -371 4 -545l191 -22v-84h-580z" />
<glyph unicode="G" horiz-adv-x="1394" d="M96 684q0 205 87 368t247 256t365 93q239 0 411 -98l8 -297h-129l-41 237q-101 53 -233 53q-219 0 -356.5 -162.5t-137.5 -449.5q0 -289 135 -449.5t373 -160.5q115 0 217 41v65q0 127 -4 369l-211 18v82h537v-82l-125 -12q-4 -246 -4 -375v-90q-231 -121 -451 -121 q-151 0 -280 54.5t-218 149t-139.5 227t-50.5 284.5z" />
<glyph unicode="H" horiz-adv-x="1617" d="M90 0v84l189 22q4 172 4 529v100q0 353 -4 529l-189 22v84h580v-84l-191 -22q-4 -168 -4 -514h668q0 344 -4 514l-189 22v84h578v-84l-189 -22q-4 -172 -4 -529v-100q0 -353 4 -529l189 -22v-84h-578v84l189 22q4 168 4 547h-668q0 -377 4 -547l191 -22v-84h-580z" />
<glyph unicode="I" horiz-adv-x="757" d="M90 0v84l189 22q4 172 4 529v100q0 353 -4 529l-189 22v84h580v-84l-191 -22q-4 -172 -4 -529v-100q0 -353 4 -529l191 -22v-84h-580z" />
<glyph unicode="J" horiz-adv-x="765" d="M-86 -233q16 100 125 100q72 0 151 -62l56 -43q78 90 78 248q0 38 -3 157.5t-8 407.5t-8 689l-209 22v84h600v-84l-188 -22q-4 -172 -4 -529v-323q0 -301 -27 -441q-29 -146 -138 -225.5t-245 -79.5q-155 0 -180 101z" />
<glyph unicode="K" horiz-adv-x="1368" d="M90 0v84l189 22q4 172 4 529v100q0 353 -4 529l-189 22v84h580v-84l-195 -22q-4 -172 -4 -529v-125l533 654l-150 22v84h471v-84l-201 -26l-348 -420l422 -736l160 -20v-84h-529v84l166 20l-331 601l-193 -230q0 -240 4 -369l195 -22v-84h-580z" />
<glyph unicode="L" horiz-adv-x="1220" d="M90 0v84l189 22q4 176 4 529v100q0 357 -4 529l-189 22v84h580v-84l-191 -22q-4 -176 -4 -529v-100q0 -359 4 -533h467l60 283h127l-21 -385h-1022z" />
<glyph unicode="M" horiz-adv-x="1849" d="M78 0v84l186 27v1153l-184 22v84h364l476 -1100l491 1100h348v-84l-188 -22q-4 -172 -4 -529v-100q0 -353 4 -529l188 -22v-84h-559v84l172 20q4 174 4 531v434l-471 -1069h-63l-473 1083v-972l170 -27v-84h-461z" />
<glyph unicode="N" horiz-adv-x="1509" d="M80 0v84l176 25v1132l-20 27l-146 18v84h316l745 -1016v906l-217 26v84h496v-84l-175 -26v-1280h-69l-828 1122v-989l217 -29v-84h-495z" />
<glyph unicode="O" horiz-adv-x="1447" d="M96 684q0 163 54 301t142.5 227.5t201 139t231.5 49.5q95 0 186 -29t171 -89t140 -144t95 -201.5t35 -253.5q0 -131 -34.5 -246.5t-95 -200t-140 -145.5t-171 -92t-186.5 -31q-121 0 -232.5 47t-200.5 134.5t-142.5 226t-53.5 307.5zM319 684q0 -118 24 -225t71.5 -195 t127.5 -140t183 -52q83 0 151.5 34.5t114.5 93t78 137.5t46.5 166t14.5 181q0 119 -24 226t-71 194.5t-127 139.5t-183 52t-183 -52t-127.5 -139.5t-71.5 -194.5t-24 -226z" />
<glyph unicode="P" horiz-adv-x="1206" d="M90 0v84l189 22q4 172 4 529v100q0 353 -4 529l-189 22v84h551q253 0 386.5 -110.5t133.5 -296.5q0 -88 -34 -162t-105 -133.5t-193 -93t-286 -33.5h-68q0 -290 4 -435l191 -22v-84h-580zM475 637h98q199 0 292 86t93 240q0 311 -354 311h-125q-4 -176 -4 -539v-98z" />
<glyph unicode="Q" horiz-adv-x="1447" d="M96 684q0 163 54 301t142.5 227.5t201 139t231.5 49.5q95 0 186 -29t171 -89t140 -144t95 -201.5t35 -253.5q0 -149 -44.5 -277t-120.5 -216.5t-173 -144t-205 -71.5q4 -147 80 -226t205 -79q70 0 157 25l25 -72q-104 -65 -254 -65q-122 0 -214.5 58t-140 153t-49.5 211 q-106 19 -198.5 73.5t-165.5 141t-115.5 213t-42.5 276.5zM319 684q0 -118 24 -225t71.5 -195t127.5 -140t183 -52q83 0 151.5 34.5t114.5 93t78 137.5t46.5 166t14.5 181q0 119 -24 226t-71 194.5t-127 139.5t-183 52t-183 -52t-127.5 -139.5t-71.5 -194.5t-24 -226z" />
<glyph unicode="R" horiz-adv-x="1333" d="M90 0v84l189 22q4 172 4 529v100q0 353 -4 529l-189 22v84h574q234 0 364.5 -93.5t130.5 -258.5q0 -135 -82.5 -231.5t-249.5 -127.5q78 -24 129.5 -83.5t83.5 -169.5l88 -302l175 -20v-84q-65 -20 -152 -20q-102 0 -156.5 29.5t-72.5 101.5l-82 327q-28 118 -87 156.5 t-188 38.5h-90q0 -357 4 -527l191 -22v-84h-580zM475 727h158q161 0 243 78.5t82 212.5q0 256 -303 256h-176q-4 -176 -4 -547z" />
<glyph unicode="S" horiz-adv-x="1048" d="M82 78l12 287h125l41 -238q98 -55 215 -55q147 0 233.5 66.5t86.5 185.5q0 91 -57 143t-197 106l-80 31q-171 68 -263 165.5t-92 244.5q0 176 129.5 281.5t331.5 105.5q193 0 338 -109l-12 -268h-127l-43 233q-77 39 -166 39q-124 0 -201 -61.5t-77 -175.5 q0 -94 57 -152.5t176 -103.5l82 -31q203 -77 289 -171.5t86 -235.5q0 -181 -135.5 -288.5t-352.5 -107.5q-110 0 -217 31t-182 78z" />
<glyph unicode="T" horiz-adv-x="1239" d="M41 1004l16 366h1127l14 -366h-117l-47 262h-313q-4 -174 -4 -531v-100q0 -353 4 -529l209 -22v-84h-621v84l209 22q4 172 4 529v100q0 355 -4 531h-313l-45 -262h-119z" />
<glyph unicode="U" horiz-adv-x="1492" d="M80 1286v84h579v-84l-206 -24q-4 -172 -4 -527v-160q0 -251 86 -355.5t253 -104.5q180 0 266.5 114t86.5 381v647l-209 29v84h491v-84l-178 -24v-701q0 -158 -36.5 -274t-104 -184.5t-154 -101t-194.5 -32.5q-234 0 -368 135.5t-134 411.5v219q0 355 -4 531z" />
<glyph unicode="V" horiz-adv-x="1378" d="M29 1286v84h557v-94l-195 -16l346 -986l332 983l-182 19v94h471v-84l-176 -24l-434 -1282h-84l-480 1288z" />
<glyph unicode="W" horiz-adv-x="1972" d="M29 1286v84h557v-84l-189 -22l254 -940l312 938l-203 24v84h555v-84l-205 -24l305 -949l262 947l-190 26v84h465v-84l-170 -24l-348 -1282h-84l-361 1071l-338 -1071h-82l-370 1286z" />
<glyph unicode="X" horiz-adv-x="1327" d="M23 0v84l194 25l365 557l-359 600l-182 20v84h575v-84l-180 -20l260 -439l271 433l-172 26v84h471v-84l-185 -24l-333 -519l382 -639l175 -20v-84h-576v84l186 22l-284 476l-301 -476l159 -22v-84h-466z" />
<glyph unicode="Y" horiz-adv-x="1292" d="M29 1286v84h577v-84l-194 -22l284 -619l293 617l-184 24v84h467v-84l-178 -26l-349 -717v-64q0 -189 5 -373l208 -22v-84h-618v84l209 22q4 145 4 373v53l-363 736z" />
<glyph unicode="Z" horiz-adv-x="1130" d="M41 0v72l776 1194h-575l-56 -262h-125l17 366h966v-74l-776 -1194h639l56 263h127l-17 -365h-1032z" />
<glyph unicode="[" horiz-adv-x="655" d="M205 -326q6 211 6 650v491q0 434 -6 649h389v-84l-227 -26q-5 -220 -5 -539v-491q0 -316 5 -539l227 -27v-84h-389z" />
<glyph unicode="\" horiz-adv-x="675" d="M4 1454h121l547 -1782h-121z" />
<glyph unicode="]" horiz-adv-x="655" d="M61 -242l228 27q4 176 4 539v491q0 361 -4 539l-228 26v84h390q-7 -246 -7 -649v-491q0 -399 7 -650h-390v84z" />
<glyph unicode="^" horiz-adv-x="1085" d="M180 496l299 489h133l299 -489l-92 -70l-272 438l-275 -438z" />
<glyph unicode="_" horiz-adv-x="1048" d="M82 0h885v-135h-885v135z" />
<glyph unicode="`" horiz-adv-x="819" d="M176 1475q0 36 22.5 55.5t55.5 19.5q60 0 117 -90l176 -280l-53 -41l-246 219q-72 65 -72 117z" />
<glyph unicode="a" horiz-adv-x="1044" d="M94 227q0 63 25.5 112t102.5 101.5t212 100.5q90 33 230 67v56q0 145 -43 196t-148 51q-53 0 -104 -10l-41 -143q-28 -99 -111 -99q-42 0 -66.5 24t-29.5 65q28 118 135.5 188t263.5 70q164 0 241 -84t77 -277v-438q0 -121 67 -121q37 0 76 35l10 12l41 -45 q-33 -61 -73 -84.5t-93 -23.5q-84 0 -134 41t-64 112q-90 -90 -152 -127t-147 -37q-118 0 -196.5 68.5t-78.5 189.5zM276 260q0 -66 39 -108q48 -48 125 -48q48 0 89.5 21.5t134.5 89.5v315q-87 -22 -187 -59q-64 -25 -106.5 -53t-62 -56.5t-26 -51.5t-6.5 -50z" />
<glyph unicode="b" horiz-adv-x="1181" d="M51 1329v72l314 92l28 -16l-8 -291v-338q139 158 315 158q167 0 278.5 -139t111.5 -371q0 -234 -119 -380.5t-301 -146.5q-158 0 -271 129h-16l-12 -118l-310 20v74l154 28q4 204 4 328v879zM391 201q121 -115 244 -115q116 0 193 102t77 291q0 194 -70.5 302t-189.5 108 q-110 0 -254 -119v-569z" />
<glyph unicode="c" horiz-adv-x="999" d="M96 483q0 118 39.5 218t105 165.5t150.5 102.5t178 37q139 0 241.5 -76t121.5 -191q-15 -77 -94 -77q-90 0 -111 98l-37 135q-52 16 -110 16q-136 0 -220 -107.5t-84 -299.5q0 -191 90 -297.5t238 -106.5q88 0 162 42t121 118l51 -27q-41 -128 -139 -196t-244 -68 q-210 0 -334.5 139.5t-124.5 374.5z" />
<glyph unicode="d" horiz-adv-x="1161" d="M92 477q0 233 123 381t313 148q154 0 269 -134v437l-174 20v72l321 92l29 -16l-8 -291v-1086l165 -26v-74l-319 -20l-14 137q-110 -148 -287 -148q-187 0 -302.5 141.5t-115.5 366.5zM276 483q0 -195 78 -296t205 -101q66 0 120.5 27.5t111.5 89.5v579q-123 107 -232 107 q-122 0 -202.5 -104.5t-80.5 -301.5z" />
<glyph unicode="e" horiz-adv-x="1044" d="M96 477q0 152 64 274t171.5 188.5t235.5 66.5q166 0 274.5 -107t108.5 -289q0 -63 -14 -114h-655q3 -187 92 -291.5t239 -104.5q92 0 158 37.5t127 110.5l49 -39q-55 -113 -156 -176.5t-237 -63.5q-208 0 -332.5 137t-124.5 371zM285 584h372q68 0 95.5 28t27.5 78 q0 89 -64.5 155t-156.5 66q-99 0 -178.5 -81t-95.5 -246z" />
<glyph unicode="f" horiz-adv-x="724" d="M72 860v90l170 23q15 168 47.5 267.5t97.5 168.5q115 125 287 125q170 0 198 -109q-3 -41 -36.5 -67.5t-87.5 -26.5q-68 0 -148 64l-51 41q-42 -30 -70 -82q-69 -116 -69 -353v-32h280v-109h-276v-430q0 -108 4 -326l182 -30v-74h-526v74l162 28q4 218 4 328v430h-168z " />
<glyph unicode="g" horiz-adv-x="1060" d="M70 -195q0 130 190 224q-56 25 -83 66.5t-27 90.5q0 103 131 195q-74 41 -116 114.5t-42 174.5q0 157 104 246.5t267 89.5q161 0 262 -84l229 77l31 -20v-129h-199q45 -76 45 -180q0 -157 -103.5 -246.5t-266.5 -89.5q-86 0 -150 20q-39 -49 -39 -102q0 -50 37 -75 t123 -25h213q164 0 247 -59.5t83 -168.5q0 -68 -32.5 -130.5t-94.5 -112.5t-161.5 -79.5t-223.5 -29.5q-208 0 -316 65.5t-108 167.5zM240 -160q0 -89 71 -132.5t195 -43.5q162 0 253 58t91 145q0 131 -203 131h-227q-53 0 -105 10q-75 -88 -75 -168zM289 668 q0 -114 52 -183t144 -69q97 0 153 71t56 187q0 112 -52 180t-146 68q-96 0 -151.5 -70t-55.5 -184z" />
<glyph unicode="h" horiz-adv-x="1232" d="M51 1329v72l314 92l28 -16l-8 -291v-371q76 86 177 138.5t198 52.5q134 0 198 -90.5t64 -288.5v-197q0 -124 4 -328l143 -28v-74h-475v74l152 28q4 200 4 328v180q0 138 -38 194t-130 56q-73 0 -141 -31.5t-150 -103.5v-295q0 -124 4 -328l142 -28v-74h-476v74l154 28 q4 204 4 328v879z" />
<glyph unicode="i" horiz-adv-x="610" d="M61 809v72l316 125l31 -21l-7 -278v-277q0 -73 5 -328l141 -28v-74h-475v74l153 28q4 204 4 328v102q0 136 -6 259zM176 1358q0 58 39 94.5t98 36.5t98.5 -36.5t39.5 -94.5t-39.5 -95.5t-98.5 -37.5t-98 37.5t-39 95.5z" />
<glyph unicode="j" horiz-adv-x="569" d="M-168 -391q24 86 119 86q74 0 155 -66l35 -26q19 23 23 32q45 87 55 169.5t10 355.5v372q0 136 -6 259l-162 18v72l312 125l28 -21l-6 -278v-523q0 -264 -23.5 -385t-101.5 -205q-49 -54 -105.5 -78t-131.5 -24q-99 0 -149 35.5t-52 81.5zM176 1358q0 58 39 94.5t98 36.5 t98.5 -36.5t39.5 -94.5t-39.5 -95.5t-98.5 -37.5t-98 37.5t-39 95.5z" />
<glyph unicode="k" horiz-adv-x="1122" d="M51 1329v72l320 92l28 -16l-8 -291v-699l361 375l-150 23v84h467v-84l-197 -27l-223 -227l338 -533l135 -24v-74h-278l-316 508l-137 -139q0 -91 4 -267l162 -28v-74h-504v74l162 28q4 218 4 328v879z" />
<glyph unicode="l" horiz-adv-x="608" d="M51 1329v72l320 92l28 -16l-8 -291v-756q0 -110 4 -328l162 -28v-74h-504v74l162 28q4 222 4 328v879z" />
<glyph unicode="m" horiz-adv-x="1847" d="M72 809v72l284 125l31 -21l16 -166q75 86 171 136.5t190 50.5q98 0 158 -46.5t84 -146.5q78 95 174 144t198 49q262 0 262 -359v-217q0 -73 5 -328l143 -28v-74h-475v74l151 28q4 200 4 328v184q0 137 -40 191.5t-130 54.5q-129 0 -276 -133q4 -62 4 -100v-197 q0 -124 4 -328l144 -28v-74h-476v74l152 28q4 200 4 328v180q0 138 -39 194t-129 56q-69 0 -132 -30.5t-142 -98.5v-301q0 -124 4 -328l143 -28v-74h-475v74l152 28q4 204 4 328v105q0 113 -7 256z" />
<glyph unicode="n" horiz-adv-x="1243" d="M72 809v72l284 125l31 -21l16 -166q77 85 175 136t194 51q134 0 198 -90.5t64 -288.5v-197q0 -124 4 -328l144 -28v-74h-475v74l151 28q4 200 4 328v180q0 138 -38 194t-130 56q-71 0 -137 -30.5t-145 -98.5v-301q0 -124 4 -328l143 -28v-74h-475v74l152 28q4 204 4 328 v105q0 113 -7 256z" />
<glyph unicode="o" horiz-adv-x="1124" d="M92 483q0 123 40 224.5t106.5 165.5t150 98.5t174.5 34.5q71 0 139.5 -21.5t128.5 -65t105 -105t71.5 -147t26.5 -184.5q0 -122 -40 -222t-106.5 -162.5t-150 -96t-174.5 -33.5t-175 33.5t-150.5 96t-106 162.5t-39.5 222zM285 483q0 -205 72 -313.5t206 -108.5 q133 0 205 109t72 313q0 206 -72.5 317t-204.5 111q-134 0 -206 -110.5t-72 -317.5z" />
<glyph unicode="p" horiz-adv-x="1193" d="M72 -416l164 29q4 222 4 330v592q0 113 -7 256l-159 18v72l284 125l31 -21l12 -133q142 154 310 154q169 0 280 -139t111 -371q0 -234 -119.5 -380.5t-302.5 -146.5q-158 0 -272 133v-159q0 -110 4 -328l186 -31v-71h-526v71zM414 190q113 -104 227 -104 q120 0 198.5 101.5t78.5 291.5q0 193 -70.5 301.5t-185.5 108.5q-111 0 -248 -113v-586z" />
<glyph unicode="q" horiz-adv-x="1140" d="M92 477q0 233 121.5 381t306.5 148q157 0 277 -134l147 134l33 -21l-6 -276v-766q0 -108 4 -330l164 -29v-71h-527v71l189 31q4 222 4 328v186q-117 -160 -295 -160q-187 0 -302.5 141.5t-115.5 366.5zM276 483q0 -195 78 -296t205 -101q67 0 123 30t117 97v561 q-128 115 -240 115q-122 0 -202.5 -104.5t-80.5 -301.5z" />
<glyph unicode="r" horiz-adv-x="866" d="M72 809v72l284 125l31 -21l23 -240q54 122 132.5 191.5t162.5 69.5q50 0 90.5 -25.5t48.5 -75.5q0 -50 -34.5 -80t-88.5 -30q-63 0 -117 51l-14 14q-120 -87 -178 -268v-162q0 -122 4 -326l168 -30v-74h-496v74l148 26q4 204 4 330v105q0 113 -7 256z" />
<glyph unicode="s" horiz-adv-x="890" d="M98 272h113l39 -176q70 -33 166 -33q114 0 172.5 42.5t58.5 115.5q0 62 -45.5 101.5t-148.5 78.5l-95 35q-247 91 -247 273q0 123 99.5 210t258.5 87q144 0 287 -84l-8 -209h-107l-31 164q-69 34 -143 34q-92 0 -141.5 -39.5t-49.5 -109.5q0 -60 41.5 -96.5t149.5 -75.5 l61 -23q150 -55 215.5 -129.5t65.5 -173.5q0 -123 -104.5 -209t-292.5 -86q-154 0 -308 80z" />
<glyph unicode="t" horiz-adv-x="667" d="M18 860v90l183 23l51 278h125l-10 -282h274v-109h-279v-622q0 -152 113 -152q62 0 137 57l50 -55q-38 -51 -101 -79.5t-141 -28.5q-111 0 -172.5 58t-61.5 175q0 22 1 76t1 98v473h-170z" />
<glyph unicode="u" horiz-adv-x="1196" d="M51 885v71l301 29l21 -20l-11 -287v-318q0 -133 39.5 -189t124.5 -56q145 0 287 133l6 606l-145 31v71l297 29l20 -20l-6 -287v-574l141 -30v-74l-284 -20l-23 182q-159 -193 -362 -193q-131 0 -199 87q-68 86 -68 276v6l7 516z" />
<glyph unicode="v" horiz-adv-x="1036" d="M0 885v84h496v-84l-181 -23l250 -659l230 657l-166 25v84h387v-84l-111 -23l-336 -882h-86l-370 888z" />
<glyph unicode="w" horiz-adv-x="1568" d="M0 885v84h467v-84l-160 -23l213 -629l230 629l-152 23v84h453v-84l-154 -25l233 -622l195 622l-154 25v84h377v-84l-112 -25l-301 -880h-76l-275 712l-262 -712h-76l-329 886z" />
<glyph unicode="x" horiz-adv-x="1038" d="M20 0v74l132 24l282 371l-276 397l-127 19v84h438v-84l-113 -19l189 -282l205 278l-132 23v84h363v-84l-113 -21l-274 -352l287 -414l137 -24v-74h-481v74l141 26l-195 295l-215 -295l148 -26v-74h-396z" />
<glyph unicode="y" horiz-adv-x="1040" d="M-8 -371q10 41 48.5 63.5t86.5 22.5q40 0 75 -18t81 -62l6 -6q62 52 107 128.5t87 187.5l-368 921l-119 19v84h493v-86l-178 -21l254 -682l232 680l-176 25v84h399v-84l-115 -25l-307 -852q-99 -274 -196 -395t-222 -121q-78 0 -133 38.5t-55 98.5z" />
<glyph unicode="z" horiz-adv-x="935" d="M61 0v72l586 809h-414l-55 -228l-104 9l16 307h764v-74l-584 -809h447l61 248h107l-21 -334h-803z" />
<glyph unicode="{" horiz-adv-x="704" d="M82 528v82q244 28 244 189q0 45 -21.5 114t-43 149t-21.5 152q0 122 81.5 186t229.5 64h92v-82l-55 -6q-106 -12 -142 -45.5t-36 -122.5q0 -88 12 -221t12 -166q0 -207 -186 -252q186 -45 186 -252q0 -33 -12 -166t-12 -221q0 -89 36 -122.5t142 -45.5l55 -6v-82h-92 q-148 0 -229.5 64t-81.5 186q0 72 21.5 152.5t43 149.5t21.5 114q0 160 -244 188z" />
<glyph unicode="|" horiz-adv-x="516" d="M199 -512v2048h118v-2048h-118z" />
<glyph unicode="}" horiz-adv-x="704" d="M61 -244l56 6q106 12 142 45.5t36 122.5q0 88 -12.5 221t-12.5 166q0 207 187 252q-187 45 -187 252q0 33 12.5 166t12.5 221q0 89 -36 122.5t-142 45.5l-56 6v82h93q148 0 229.5 -64t81.5 -186q0 -72 -21.5 -152t-43 -149t-21.5 -114q0 -161 244 -189v-82 q-244 -28 -244 -188q0 -45 21.5 -114t43 -149.5t21.5 -152.5q0 -122 -81.5 -186t-229.5 -64h-93v82z" />
<glyph unicode="~" horiz-adv-x="1085" d="M100 575q18 289 244 289q63 0 119 -27.5t119 -84.5q94 -84 172 -84q106 0 129 186l104 -16q-18 -289 -244 -289q-63 0 -118 27.5t-119 85.5q-93 83 -172 83q-106 0 -129 -186z" />
<glyph unicode="&#xa1;" horiz-adv-x="591" d="M164 872q0 55 38 94.5t93 39.5t94 -40t39 -94t-39 -93.5t-94 -39.5t-93 39t-38 94zM178 -297q0 50 51 551l29 278h76l26 -278q10 -96 25.5 -240t22 -210.5t6.5 -100.5q0 -65 -31.5 -97t-87.5 -32q-117 0 -117 129z" />
<glyph unicode="&#xa2;" d="M90 643q0 213 121 353t297 163v193h84v-189q131 -8 226 -82t112 -184q-18 -78 -99 -78q-50 0 -80 36.5t-49 119.5l-18 80q-52 13 -92 16v-811q91 3 168.5 44.5t122.5 113.5l51 -25q-39 -118 -125 -186t-217 -78v-221h-84v221q-191 12 -304.5 150.5t-113.5 363.5zM270 662 q0 -164 64 -266.5t174 -127.5v797q-108 -26 -173 -131t-65 -272z" />
<glyph unicode="&#xa3;" d="M72 0v104q108 60 168.5 171.5t60.5 234.5q0 40 -6 74h-211v102h180q-7 18 -25.5 62.5t-27.5 70t-18 69t-9 87.5q0 161 107.5 268t273.5 107q143 0 247 -84t110 -213q-21 -66 -95 -66q-44 0 -72.5 31t-45.5 106l-27 123q-39 10 -84 10q-101 0 -162 -67.5t-61 -206.5 q0 -53 5 -102t15 -109.5t13 -85.5h335v-102h-325q2 -18 2 -58q0 -230 -148 -356h680v-170h-880z" />
<glyph unicode="&#xa4;" d="M57 293q0 28 26 55t93 66l74 43q-78 91 -78 217t78 217l-74 43q-67 39 -93 66t-26 55q0 31 21.5 52t52.5 21q29 0 55 -25.5t66 -92.5l45 -76q93 74 215 74t215 -74l45 76q41 68 67 93t54 25q31 0 53.5 -21.5t22.5 -51.5q0 -29 -25.5 -55t-93.5 -66l-76 -45 q76 -89 76 -215t-76 -215l76 -45q67 -41 92 -67t25 -54q0 -31 -21.5 -53.5t-52.5 -22.5q-28 0 -55 26t-66 93l-45 76q-94 -72 -215 -72t-215 72l-45 -76q-39 -66 -66 -91.5t-55 -25.5q-31 0 -52.5 21.5t-21.5 52.5zM291 674q0 -100 64.5 -164t156.5 -64t155.5 64t63.5 164 q0 98 -63.5 162.5t-155.5 64.5t-156.5 -64.5t-64.5 -162.5z" />
<glyph unicode="&#xa5;" d="M-25 1241v78h500v-78l-156 -20l240 -543l246 541l-152 22v78h396v-78l-144 -24l-260 -562h291v-102h-336v-137h336v-105h-336q0 -63 4 -207l209 -22v-82h-598v82l207 20q1 36 2 105t2 104h-324v105h324v137h-324v102h279l-270 570z" />
<glyph unicode="&#xa6;" horiz-adv-x="516" d="M199 410h118v-922h-118v922zM199 655v881h118v-881h-118z" />
<glyph unicode="&#xa7;" horiz-adv-x="1003" d="M92 653q0 160 168 260q-72 87 -72 195q0 56 22 107.5t64 93.5t110.5 67t154.5 25q135 0 229.5 -65.5t99.5 -155.5q-25 -78 -96 -78q-44 0 -75.5 26t-59.5 82l-47 95q-14 2 -39 2q-102 0 -156.5 -44t-54.5 -110q0 -45 19.5 -82.5t58.5 -68.5t78 -52.5t98 -48.5 q83 -38 135.5 -69t97 -71.5t64.5 -89.5t20 -112q0 -167 -163 -272q69 -79 69 -181q0 -128 -96.5 -219.5t-255.5 -91.5q-135 0 -230 65.5t-100 155.5q25 78 96 78q43 0 74.5 -25.5t61.5 -82.5l47 -97q12 -2 37 -2q104 0 158.5 49.5t54.5 124.5q0 34 -12.5 62.5t-30.5 50 t-54 45t-67.5 40t-87.5 42.5q-63 30 -102 51.5t-85.5 54.5t-72 65.5t-43 79t-17.5 101.5zM238 705q0 -37 15 -69.5t36 -55t58 -46.5t66 -38.5t74 -34.5q137 -63 207 -121q74 77 74 170q0 25 -7.5 47t-17 38.5t-31 34.5t-37 29t-49.5 28t-53 26t-61 28q-131 59 -201 121 q-73 -67 -73 -157z" />
<glyph unicode="&#xa8;" horiz-adv-x="819" d="M86 1313q0 49 33.5 80.5t83.5 31.5q49 0 84 -32t35 -80q0 -47 -35.5 -79t-83.5 -32q-50 0 -83.5 32t-33.5 79zM498 1313q0 48 35 80t83 32q50 0 83.5 -31.5t33.5 -80.5q0 -47 -33.5 -79t-83.5 -32q-48 0 -83 32t-35 79z" />
<glyph unicode="&#xa9;" horiz-adv-x="1546" d="M61 688q0 217 96.5 381t257 248t359.5 84t359 -84t256 -248t96 -381q0 -163 -55.5 -299t-151.5 -227.5t-226 -142t-278 -50.5t-278 50.5t-226.5 142t-152.5 227.5t-56 299zM166 688q0 -144 46.5 -264t128 -201.5t193.5 -126.5t240 -45t239 45.5t192.5 127t128 201.5 t46.5 263q0 144 -46.5 263t-128 198.5t-192.5 123.5t-239 44q-129 0 -240 -43.5t-193 -123t-128.5 -199t-46.5 -263.5zM408 690q0 178 113.5 297t283.5 119q132 0 233 -57l4 -195h-90l-22 147q-59 21 -109 21q-115 0 -190.5 -87.5t-75.5 -244.5q0 -159 72 -245.5t196 -86.5 q52 0 117 23l23 143h92l-6 -194q-106 -56 -242 -56q-178 0 -288.5 116t-110.5 300z" />
<glyph unicode="&#xaa;" horiz-adv-x="720" d="M63 1012q0 68 49 120.5t185 98.5q87 28 152 43v37q0 87 -27.5 119t-95.5 32q-28 0 -72 -6l-18 -76q-24 -88 -86 -88q-59 0 -66 64q17 79 91.5 128.5t180.5 49.5q113 0 170.5 -61.5t57.5 -196.5v-279q0 -27 13 -43t32 -16q30 0 57 35l31 -27q-24 -49 -54 -69.5t-73 -20.5 q-110 0 -135 96q-54 -52 -102 -77t-105 -25q-79 0 -132 43t-53 119zM201 1051q0 -48 24 -72q29 -29 84 -29q28 0 57.5 13t82.5 49v200q-43 -9 -125 -34q-73 -25 -98 -56t-25 -71z" />
<glyph unicode="&#xab;" horiz-adv-x="989" d="M61 461v112l414 357l51 -58l-305 -354l305 -356l-51 -58zM473 461v112l414 357l51 -58l-305 -354l305 -356l-51 -58z" />
<glyph unicode="&#xac;" horiz-adv-x="1085" d="M49 700v119h967v-493h-127v374h-840z" />
<glyph unicode="&#xad;" horiz-adv-x="638" d="M82 446v136h475v-136h-475z" />
<glyph unicode="&#xae;" horiz-adv-x="940" d="M61 1057q0 122 56.5 214.5t148.5 139.5t203 47q82 0 156.5 -27.5t131 -78t89.5 -127t33 -168.5q0 -122 -57 -216t-149.5 -142t-203.5 -48q-170 0 -289 111.5t-119 294.5zM141 1057q0 -159 92.5 -251.5t235.5 -92.5q145 0 237.5 92.5t92.5 251.5t-92.5 249.5t-237.5 90.5 q-144 0 -236 -90.5t-92 -249.5zM281 858v31l59 6v336l-59 6v33h194q72 0 114 -29t42 -76q0 -35 -24.5 -64.5t-76.5 -43.5q80 -17 91 -78l20 -84l47 -6v-31q-36 -8 -61 -8q-39 0 -57 11t-25 42l-19 88q-8 49 -69 49h-29v-145l57 -6v-31h-204zM428 1075h27q42 0 62 23t20 59 q0 78 -82 78h-27v-160z" />
<glyph unicode="&#xaf;" horiz-adv-x="819" d="M141 1235v129h537v-129h-537z" />
<glyph unicode="&#xb0;" horiz-adv-x="675" d="M72 1135q0 117 78 191.5t188 74.5t188 -74.5t78 -191.5t-77.5 -190t-188.5 -73t-188.5 73t-77.5 190zM166 1135q0 -83 48.5 -136t123.5 -53t123.5 53t48.5 136t-48.5 137.5t-123.5 54.5t-123.5 -54.5t-48.5 -137.5z" />
<glyph unicode="&#xb1;" horiz-adv-x="1085" d="M59 0v119h967v-119h-967zM59 623v118h420v404h127v-404h420v-118h-420v-416h-127v416h-420z" />
<glyph unicode="&#xb2;" horiz-adv-x="747" d="M94 1493q7 100 87 154.5t194 54.5q126 0 188 -62t62 -151q0 -83 -58.5 -162.5t-208.5 -216.5l-100 -94h397v-146h-549v103l189 182q93 89 136.5 165t43.5 153q0 76 -40 116.5t-113 40.5q-14 0 -54 -4l-18 -78q-13 -58 -32 -80t-50 -22q-48 0 -74 47z" />
<glyph unicode="&#xb3;" horiz-adv-x="743" d="M76 1047q18 53 69 53q32 0 52 -21t30 -75l17 -76q31 -8 67 -8q89 0 138 46t49 128q0 77 -46.5 119t-140.5 42h-63v82h53q166 0 166 146q0 71 -40 109t-110 38q-13 0 -49 -4l-14 -74q-14 -84 -80 -84q-48 0 -72 43q13 93 83 142t173 49q114 0 184 -55t70 -146 q0 -71 -41.5 -126t-109.5 -77q91 -17 139.5 -71t48.5 -140q0 -80 -43.5 -134.5t-109 -77.5t-146.5 -23q-119 0 -189.5 51t-84.5 144z" />
<glyph unicode="&#xb4;" horiz-adv-x="819" d="M264 1180l178 280q54 90 115 90q33 0 55.5 -19.5t22.5 -55.5q0 -52 -72 -117l-246 -219z" />
<glyph unicode="&#xb5;" horiz-adv-x="1196" d="M94 -401q0 34 6 69t17.5 79.5t15.5 66.5l60 331v390l-13 434l113 37l37 -21l-15 -182v-379q0 -144 52.5 -204t152.5 -60q156 0 299 131v244l-12 430l111 41l38 -21l-14 -182v-549q0 -60 23.5 -90.5t62.5 -30.5q46 0 80 19l14 6l39 -107q-74 -71 -168 -71q-171 0 -174 202 q-147 -213 -315 -213q-155 0 -207 140l-12 -586q-39 -31 -99 -31q-41 0 -66.5 26.5t-25.5 80.5z" />
<glyph unicode="&#xb6;" horiz-adv-x="1228" d="M51 844q0 239 184 382.5t494 143.5h410v-84l-189 -22q-4 -172 -4 -529v-364q0 -424 6 -635h-170q6 207 6 635v903h-118v-969q-144 1 -261 41t-195.5 111t-120.5 170t-42 217z" />
<glyph unicode="&#xb7;" horiz-adv-x="614" d="M162 674q0 62 42 104.5t103 42.5t103.5 -42.5t42.5 -104.5q0 -60 -42.5 -103t-103.5 -43t-103 43t-42 103z" />
<glyph unicode="&#xb8;" horiz-adv-x="819" d="M215 -434l14 63q49 -6 101 -6q57 0 86.5 25t29.5 69q0 46 -35 71t-110 34l27 184h73l-14 -125q83 -13 134.5 -55.5t51.5 -112.5q0 -74 -60 -120t-169 -46q-65 0 -129 19z" />
<glyph unicode="&#xb9;" horiz-adv-x="694" d="M133 870v62l152 31v610l-140 -12v69l269 66l18 -13v-720l150 -31v-62h-449z" />
<glyph unicode="&#xba;" horiz-adv-x="774" d="M57 1190q0 156 98.5 250t231.5 94q132 0 231 -94.5t99 -249.5t-97 -247.5t-233 -92.5q-64 0 -123.5 23.5t-105.5 65.5t-73.5 107.5t-27.5 143.5zM207 1192q0 -270 180 -270q182 0 182 270t-182 270q-180 0 -180 -270z" />
<glyph unicode="&#xbb;" horiz-adv-x="989" d="M51 162l305 356l-305 354l51 58l414 -357v-112l-414 -357zM463 162l305 356l-305 354l51 58l414 -357v-112l-414 -357z" />
<glyph unicode="&#xbc;" horiz-adv-x="1765" d="M170 520v62l152 30v611l-140 -13v70l269 66l18 -13v-721l149 -30v-62h-448zM424 2l952 1368l64 -51l-953 -1370zM983 203v98l387 524h98v-501h129v-121h-129v-203h-133v203h-352zM1085 324h250v356z" />
<glyph unicode="&#xbd;" horiz-adv-x="1765" d="M152 520v62l151 30v611l-139 -13v70l268 66l19 -13v-721l149 -30v-62h-448zM358 2l953 1368l63 -51l-952 -1370zM1053 623q7 100 86.5 154t193.5 54q126 0 188 -62t62 -151q0 -58 -30 -114.5t-82.5 -114t-153.5 -149.5l-100 -95h397v-145h-549v102l188 183 q93 90 137 165.5t44 151.5t-40.5 117t-113.5 41q-13 0 -53 -4l-19 -78q-13 -58 -32 -80.5t-50 -22.5q-47 0 -73 48z" />
<glyph unicode="&#xbe;" horiz-adv-x="1765" d="M160 696q18 54 69 54q32 0 52 -21.5t30 -75.5l17 -75q35 -9 67 -9q89 0 138 46t49 128q0 77 -46.5 119.5t-140.5 42.5h-63v82h53q166 0 166 146q0 71 -40 109t-110 38q-13 0 -49 -4l-14 -74q-14 -84 -80 -84q-48 0 -72 43q13 93 83 142t173 49q114 0 184 -55t70 -146 q0 -71 -41.5 -126t-109.5 -77q91 -17 139.5 -71t48.5 -140q0 -80 -43.5 -134.5t-109 -77.5t-146.5 -23q-119 0 -189.5 50.5t-84.5 143.5zM442 0l953 1368l63 -51l-952 -1370zM1001 203v98l388 524h98v-501h129v-121h-129v-203h-133v203h-353zM1104 324h250v356z" />
<glyph unicode="&#xbf;" horiz-adv-x="858" d="M139 31q0 191 203 258l74 24q64 21 81 41.5t17 71.5l2 111h76l26 -86q29 -98 29 -140q0 -48 -36 -79t-126 -60l-116 -39q-117 -41 -117 -141q0 -69 51 -150q47 -7 114.5 -18t111 -18t44.5 -7q85 -16 117.5 -43t32.5 -69q0 -86 -113 -113q-73 8 -153.5 44t-152 93 t-118.5 142t-47 178zM420 872q0 54 39 94t94 40t94 -40t39 -94t-39 -93.5t-94 -39.5t-94 39.5t-39 93.5z" />
<glyph unicode="&#xc0;" horiz-adv-x="1359" d="M10 0v84l174 27l439 1259h122l441 -1268l153 -18v-84h-557v84l201 25l-115 337h-471l-114 -335l198 -27v-84h-471zM430 543h406l-201 592zM442 1726q0 30 22.5 50t53.5 20q51 0 129 -78l193 -192l-37 -51l-258 139q-103 54 -103 112z" />
<glyph unicode="&#xc1;" horiz-adv-x="1359" d="M10 0v84l174 27l439 1259h122l441 -1268l153 -18v-84h-557v84l201 25l-115 337h-471l-114 -335l198 -27v-84h-471zM430 543h406l-201 592zM520 1526l193 192q78 78 129 78q32 0 55 -20t23 -50q0 -57 -105 -112l-258 -139z" />
<glyph unicode="&#xc2;" horiz-adv-x="1359" d="M10 0v84l174 27l439 1259h122l441 -1268l153 -18v-84h-557v84l201 25l-115 337h-471l-114 -335l198 -27v-84h-471zM397 1499l248 236h70l248 -236l-39 -51l-244 147l-244 -147zM430 543h406l-201 592z" />
<glyph unicode="&#xc3;" horiz-adv-x="1359" d="M10 0v84l174 27l439 1259h122l441 -1268l153 -18v-84h-557v84l201 25l-115 337h-471l-114 -335l198 -27v-84h-471zM338 1548q0 95 49 146t137 51q101 0 187 -80q42 -38 71 -54t60 -16q44 0 71 31.5t27 97.5h70q4 -24 4 -41q0 -96 -50.5 -150t-140.5 -54q-51 0 -92 19.5 t-90 62.5q-44 38 -72 53.5t-59 15.5q-43 0 -70.5 -32t-27.5 -99h-70q-4 24 -4 49zM430 543h406l-201 592z" />
<glyph unicode="&#xc4;" horiz-adv-x="1359" d="M10 0v84l174 27l439 1259h122l441 -1268l153 -18v-84h-557v84l201 25l-115 337h-471l-114 -335l198 -27v-84h-471zM334 1622q0 48 35.5 80.5t83.5 32.5q50 0 83 -32t33 -81q0 -47 -33.5 -80t-82.5 -33q-48 0 -83.5 33t-35.5 80zM430 543h406l-201 592zM793 1622 q0 49 33 81t83 32q48 0 83.5 -32.5t35.5 -80.5q0 -47 -35.5 -80t-83.5 -33q-49 0 -82.5 33t-33.5 80z" />
<glyph unicode="&#xc5;" horiz-adv-x="1359" d="M10 0v84l174 27l439 1259h122l441 -1268l153 -18v-84h-557v84l201 25l-115 337h-471l-114 -335l198 -27v-84h-471zM430 543h406l-201 592zM481 1667q0 87 59.5 140t139.5 53t139.5 -52t59.5 -141q0 -84 -60 -137t-139 -53q-80 0 -139.5 52t-59.5 138zM573 1667 q0 -46 28.5 -81.5t78.5 -35.5q48 0 77 35.5t29 81.5q0 47 -28 81t-78 34q-49 0 -78 -34t-29 -81z" />
<glyph unicode="&#xc6;" horiz-adv-x="1886" d="M10 0v84l170 22l631 1162l-158 18v84h1108l15 -364h-117l-45 260h-484q-4 -170 -4 -518h306l28 196h94v-485h-94l-26 192h-308q0 -373 4 -549h525l45 263h117l-15 -365h-1048v84l176 20q4 254 4 404h-418l-215 -397l180 -27v-84h-471zM567 604h367v651h-14z" />
<glyph unicode="&#xc7;" horiz-adv-x="1292" d="M96 684q0 205 89.5 369t248.5 256t357 92q223 0 393 -98l8 -299h-129l-41 243q-98 49 -209 49q-104 0 -193.5 -40t-157 -115.5t-106.5 -193t-39 -263.5q0 -291 132.5 -451.5t349.5 -160.5q127 0 243 55l41 238h129l-8 -297q-180 -99 -409 -99l-11 -88q83 -13 135 -55.5 t52 -112.5q0 -74 -60 -120t-170 -46q-65 0 -129 19l15 63q49 -6 100 -6q57 0 87 25t30 69q0 46 -35.5 71t-110.5 34l23 149q-282 25 -453.5 220.5t-171.5 492.5z" />
<glyph unicode="&#xc8;" horiz-adv-x="1236" d="M90 0v84l189 22q4 172 4 529v100q0 353 -4 529l-189 22v84h1020l14 -364h-116l-45 260h-484q-4 -170 -4 -518h305l29 196h92v-485h-92l-27 192h-307q0 -373 4 -549h525l45 263h116l-14 -365h-1061zM381 1726q0 30 22.5 50t53.5 20q51 0 129 -78l192 -192l-37 -51 l-258 139q-56 29 -79 56t-23 56z" />
<glyph unicode="&#xc9;" horiz-adv-x="1236" d="M90 0v84l189 22q4 172 4 529v100q0 353 -4 529l-189 22v84h1020l14 -364h-116l-45 260h-484q-4 -170 -4 -518h305l29 196h92v-485h-92l-27 192h-307q0 -373 4 -549h525l45 263h116l-14 -365h-1061zM541 1526l192 192q78 78 129 78q32 0 55 -20t23 -50q0 -57 -104 -112 l-258 -139z" />
<glyph unicode="&#xca;" horiz-adv-x="1236" d="M90 0v84l189 22q4 172 4 529v100q0 353 -4 529l-189 22v84h1020l14 -364h-116l-45 260h-484q-4 -170 -4 -518h305l29 196h92v-485h-92l-27 192h-307q0 -373 4 -549h525l45 263h116l-14 -365h-1061zM416 1540l248 236h69l248 -236l-39 -51l-244 147l-243 -147z" />
<glyph unicode="&#xcb;" horiz-adv-x="1236" d="M90 0v84l189 22q4 172 4 529v100q0 353 -4 529l-189 22v84h1020l14 -364h-116l-45 260h-484q-4 -170 -4 -518h305l29 196h92v-485h-92l-27 192h-307q0 -373 4 -549h525l45 263h116l-14 -365h-1061zM317 1622q0 48 35.5 80.5t83.5 32.5q50 0 83.5 -32t33.5 -81 q0 -47 -34 -80t-83 -33q-48 0 -83.5 33t-35.5 80zM776 1622q0 49 33.5 81t83.5 32q48 0 83.5 -32.5t35.5 -80.5q0 -47 -35.5 -80t-83.5 -33q-49 0 -83 33t-34 80z" />
<glyph unicode="&#xcc;" horiz-adv-x="757" d="M90 0v84l189 22q4 172 4 529v100q0 353 -4 529l-189 22v84h580v-84l-191 -22q-4 -172 -4 -529v-100q0 -353 4 -529l191 -22v-84h-580zM141 1726q0 30 22.5 50t53.5 20q51 0 129 -78l193 -192l-37 -51l-258 139q-103 54 -103 112z" />
<glyph unicode="&#xcd;" horiz-adv-x="757" d="M90 0v84l189 22q4 172 4 529v100q0 353 -4 529l-189 22v84h580v-84l-191 -22q-4 -172 -4 -529v-100q0 -353 4 -529l191 -22v-84h-580zM262 1526l193 192q78 78 129 78q32 0 55 -20t23 -50q0 -57 -105 -112l-258 -139z" />
<glyph unicode="&#xce;" horiz-adv-x="757" d="M90 0v84l189 22q4 172 4 529v100q0 353 -4 529l-189 22v84h580v-84l-191 -22q-4 -172 -4 -529v-100q0 -353 4 -529l191 -22v-84h-580zM96 1540l248 236h70l248 -236l-39 -51l-244 147l-244 -147z" />
<glyph unicode="&#xcf;" horiz-adv-x="757" d="M31 1622q0 48 35.5 80.5t83.5 32.5q50 0 83 -32t33 -81q0 -47 -33.5 -80t-82.5 -33q-48 0 -83.5 33t-35.5 80zM90 0v84l189 22q4 172 4 529v100q0 353 -4 529l-189 22v84h580v-84l-191 -22q-4 -172 -4 -529v-100q0 -353 4 -529l191 -22v-84h-580zM489 1622q0 49 33.5 81 t83.5 32q48 0 83.5 -32.5t35.5 -80.5q0 -47 -35.5 -80t-83.5 -33q-49 0 -83 33t-34 80z" />
<glyph unicode="&#xd0;" horiz-adv-x="1452" d="M90 0v84l189 22q4 172 4 547h-193v97h193q0 344 -4 514l-189 22v84h606q142 0 262.5 -45.5t209 -130.5t138.5 -215.5t50 -292.5t-55 -293.5t-151 -216.5t-223 -130.5t-272 -45.5h-565zM475 653q0 -379 4 -557h183q217 0 344 153t127 435q0 283 -128 436.5t-346 153.5 h-180q-4 -172 -4 -524h316v-97h-316z" />
<glyph unicode="&#xd1;" horiz-adv-x="1509" d="M80 0v84l176 25v1132l-20 27l-146 18v84h316l745 -1016v906l-217 26v84h496v-84l-175 -26v-1280h-69l-828 1122v-989l217 -29v-84h-495zM430 1530q0 95 49 145.5t137 50.5q102 0 187 -79q42 -38 71 -54t60 -16q44 0 71 31.5t27 97.5h70q4 -24 4 -41q0 -97 -51 -151 t-140 -54q-51 0 -92 19.5t-90 62.5q-45 38 -73 54t-58 16q-43 0 -70.5 -32t-27.5 -99h-70q-4 24 -4 49z" />
<glyph unicode="&#xd2;" horiz-adv-x="1447" d="M96 684q0 163 54 301t142.5 227.5t201 139t231.5 49.5q95 0 186 -29t171 -89t140 -144t95 -201.5t35 -253.5q0 -131 -34.5 -246.5t-95 -200t-140 -145.5t-171 -92t-186.5 -31q-121 0 -232.5 47t-200.5 134.5t-142.5 226t-53.5 307.5zM319 684q0 -118 24 -225t71.5 -195 t127.5 -140t183 -52q83 0 151.5 34.5t114.5 93t78 137.5t46.5 166t14.5 181q0 119 -24 226t-71 194.5t-127 139.5t-183 52t-183 -52t-127.5 -139.5t-71.5 -194.5t-24 -226zM485 1726q0 30 22.5 50t53.5 20q51 0 129 -78l193 -192l-37 -51l-258 139q-103 54 -103 112z" />
<glyph unicode="&#xd3;" horiz-adv-x="1447" d="M96 684q0 163 54 301t142.5 227.5t201 139t231.5 49.5q95 0 186 -29t171 -89t140 -144t95 -201.5t35 -253.5q0 -131 -34.5 -246.5t-95 -200t-140 -145.5t-171 -92t-186.5 -31q-121 0 -232.5 47t-200.5 134.5t-142.5 226t-53.5 307.5zM319 684q0 -118 24 -225t71.5 -195 t127.5 -140t183 -52q83 0 151.5 34.5t114.5 93t78 137.5t46.5 166t14.5 181q0 119 -24 226t-71 194.5t-127 139.5t-183 52t-183 -52t-127.5 -139.5t-71.5 -194.5t-24 -226zM604 1526l193 192q78 78 129 78q32 0 55 -20t23 -50q0 -57 -105 -112l-258 -139z" />
<glyph unicode="&#xd4;" horiz-adv-x="1447" d="M96 684q0 163 54 301t142.5 227.5t201 139t231.5 49.5q95 0 186 -29t171 -89t140 -144t95 -201.5t35 -253.5q0 -131 -34.5 -246.5t-95 -200t-140 -145.5t-171 -92t-186.5 -31q-121 0 -232.5 47t-200.5 134.5t-142.5 226t-53.5 307.5zM319 684q0 -118 24 -225t71.5 -195 t127.5 -140t183 -52q83 0 151.5 34.5t114.5 93t78 137.5t46.5 166t14.5 181q0 119 -24 226t-71 194.5t-127 139.5t-183 52t-183 -52t-127.5 -139.5t-71.5 -194.5t-24 -226zM440 1540l248 236h70l248 -236l-39 -51l-244 147l-244 -147z" />
<glyph unicode="&#xd5;" horiz-adv-x="1447" d="M96 684q0 163 54 301t142.5 227.5t201 139t231.5 49.5q95 0 186 -29t171 -89t140 -144t95 -201.5t35 -253.5q0 -131 -34.5 -246.5t-95 -200t-140 -145.5t-171 -92t-186.5 -31q-121 0 -232.5 47t-200.5 134.5t-142.5 226t-53.5 307.5zM319 684q0 -118 24 -225t71.5 -195 t127.5 -140t183 -52q83 0 151.5 34.5t114.5 93t78 137.5t46.5 166t14.5 181q0 119 -24 226t-71 194.5t-127 139.5t-183 52t-183 -52t-127.5 -139.5t-71.5 -194.5t-24 -226zM381 1550q0 95 49 146t137 51q101 0 187 -80q42 -38 71 -54t60 -16q44 0 71 31.5t27 97.5h70 q4 -24 4 -40q0 -97 -51 -151t-140 -54q-51 0 -92 19.5t-90 62.5q-44 38 -72 53.5t-59 15.5q-43 0 -70.5 -32t-27.5 -99h-70q-4 24 -4 49z" />
<glyph unicode="&#xd6;" horiz-adv-x="1447" d="M96 684q0 163 54 301t142.5 227.5t201 139t231.5 49.5q95 0 186 -29t171 -89t140 -144t95 -201.5t35 -253.5q0 -131 -34.5 -246.5t-95 -200t-140 -145.5t-171 -92t-186.5 -31q-121 0 -232.5 47t-200.5 134.5t-142.5 226t-53.5 307.5zM319 684q0 -118 24 -225t71.5 -195 t127.5 -140t183 -52q83 0 151.5 34.5t114.5 93t78 137.5t46.5 166t14.5 181q0 119 -24 226t-71 194.5t-127 139.5t-183 52t-183 -52t-127.5 -139.5t-71.5 -194.5t-24 -226zM375 1622q0 48 35.5 80.5t83.5 32.5q50 0 83 -32t33 -81q0 -47 -33.5 -80t-82.5 -33q-48 0 -83.5 33 t-35.5 80zM834 1622q0 49 33 81t83 32q48 0 83.5 -32.5t35.5 -80.5q0 -47 -35.5 -80t-83.5 -33q-49 0 -82.5 33t-33.5 80z" />
<glyph unicode="&#xd7;" horiz-adv-x="1085" d="M86 303l373 373l-373 371l86 83l371 -370l370 370l86 -83l-370 -371l370 -373l-86 -84l-370 371l-371 -371z" />
<glyph unicode="&#xd8;" horiz-adv-x="1447" d="M96 684q0 163 54 301t142.5 227.5t201 139t231.5 49.5q217 0 387 -141l123 149l88 -70l-131 -161q160 -198 160 -494q0 -131 -34.5 -246.5t-95 -200t-140 -145.5t-171 -92t-186.5 -31q-226 0 -401 152l-131 -162l-89 70l144 174q-152 193 -152 481zM319 684 q0 -185 54 -328l641 783q-108 157 -289 157q-103 0 -183 -52t-127.5 -139.5t-71.5 -194.5t-24 -226zM426 246q110 -174 299 -174q83 0 151.5 34.5t114.5 93t78 137.5t46.5 166t14.5 181q0 199 -59 346z" />
<glyph unicode="&#xd9;" horiz-adv-x="1492" d="M80 1286v84h579v-84l-206 -24q-4 -172 -4 -527v-160q0 -251 86 -355.5t253 -104.5q180 0 266.5 114t86.5 381v647l-209 29v84h491v-84l-178 -24v-701q0 -158 -36.5 -274t-104 -184.5t-154 -101t-194.5 -32.5q-234 0 -368 135.5t-134 411.5v219q0 355 -4 531zM510 1708 q0 30 22.5 50t53.5 20q51 0 129 -78l192 -193l-37 -51l-258 139q-102 54 -102 113z" />
<glyph unicode="&#xda;" horiz-adv-x="1492" d="M80 1286v84h579v-84l-206 -24q-4 -172 -4 -527v-160q0 -251 86 -355.5t253 -104.5q180 0 266.5 114t86.5 381v647l-209 29v84h491v-84l-178 -24v-701q0 -158 -36.5 -274t-104 -184.5t-154 -101t-194.5 -32.5q-234 0 -368 135.5t-134 411.5v219q0 355 -4 531zM651 1507 l193 193q78 78 129 78q32 0 55 -20t23 -50q0 -58 -105 -113l-258 -139z" />
<glyph unicode="&#xdb;" horiz-adv-x="1492" d="M80 1286v84h579v-84l-206 -24q-4 -172 -4 -527v-160q0 -251 86 -355.5t253 -104.5q180 0 266.5 114t86.5 381v647l-209 29v84h491v-84l-178 -24v-701q0 -158 -36.5 -274t-104 -184.5t-154 -101t-194.5 -32.5q-234 0 -368 135.5t-134 411.5v219q0 355 -4 531zM498 1522 l247 235h70l248 -235l-39 -52l-244 148l-243 -148z" />
<glyph unicode="&#xdc;" horiz-adv-x="1492" d="M80 1286v84h579v-84l-206 -24q-4 -172 -4 -527v-160q0 -251 86 -355.5t253 -104.5q180 0 266.5 114t86.5 381v647l-209 29v84h491v-84l-178 -24v-701q0 -158 -36.5 -274t-104 -184.5t-154 -101t-194.5 -32.5q-234 0 -368 135.5t-134 411.5v219q0 355 -4 531zM442 1622 q0 48 35.5 80.5t83.5 32.5q50 0 83.5 -32t33.5 -81q0 -47 -34 -80t-83 -33q-48 0 -83.5 33t-35.5 80zM901 1622q0 49 33.5 81t83.5 32q48 0 83.5 -32.5t35.5 -80.5q0 -47 -35.5 -80t-83.5 -33q-49 0 -83 33t-34 80z" />
<glyph unicode="&#xdd;" horiz-adv-x="1292" d="M29 1286v84h577v-84l-194 -22l284 -619l293 617l-184 24v84h467v-84l-178 -26l-349 -717v-64q0 -189 5 -373l208 -22v-84h-618v84l209 22q4 145 4 373v53l-363 736zM569 1507l193 193q78 78 129 78q32 0 55 -20t23 -50q0 -58 -105 -113l-258 -139z" />
<glyph unicode="&#xde;" horiz-adv-x="1249" d="M90 0v84l189 22q4 172 4 529v100q0 353 -4 529l-189 22v84h590v-84l-201 -22q-4 -110 -4 -168h193q261 0 396.5 -104t135.5 -283q0 -63 -15.5 -117t-56 -106.5t-104.5 -89t-168.5 -59t-241.5 -22.5h-139q0 -35 1 -104.5t1 -104.5l203 -22v-84h-590zM475 412h174 q174 0 261 81.5t87 219.5q0 286 -354 286h-168v-587z" />
<glyph unicode="&#xdf;" horiz-adv-x="1210" d="M51 0v74l162 28q4 218 4 328v426q0 275 68 422q51 118 160 187t247 69q156 0 255.5 -78.5t99.5 -200.5q0 -152 -175 -284q-114 -82 -114 -191q0 -59 31.5 -93t128.5 -95q145 -91 196 -159.5t51 -166.5q0 -140 -86.5 -218.5t-257.5 -78.5q-133 0 -289 60l-6 243h101 l47 -182q72 -27 139 -27q188 0 188 166q0 59 -35 106.5t-141 110.5q-58 35 -92 60t-66 59t-45.5 74.5t-13.5 91.5q0 147 140 264q70 60 99.5 111.5t29.5 122.5q0 102 -53 157.5t-162 55.5q-190 0 -248 -182q-16 -57 -19.5 -128.5t-3.5 -248.5v-453q0 -216 6 -430h-346z" />
<glyph unicode="&#xe0;" horiz-adv-x="1044" d="M94 227q0 63 25.5 112t102.5 101.5t212 100.5q90 33 230 67v56q0 145 -43 196t-148 51q-53 0 -104 -10l-41 -143q-28 -99 -111 -99q-42 0 -66.5 24t-29.5 65q28 118 135.5 188t263.5 70q164 0 241 -84t77 -277v-438q0 -121 67 -121q37 0 76 35l10 12l41 -45 q-33 -61 -73 -84.5t-93 -23.5q-84 0 -134 41t-64 112q-90 -90 -152 -127t-147 -37q-118 0 -196.5 68.5t-78.5 189.5zM276 260q0 -66 39 -108q48 -48 125 -48q48 0 89.5 21.5t134.5 89.5v315q-87 -22 -187 -59q-64 -25 -106.5 -53t-62 -56.5t-26 -51.5t-6.5 -50zM291 1475 q0 36 22.5 55.5t55.5 19.5q59 0 116 -90l177 -280l-54 -41l-246 219q-71 64 -71 117z" />
<glyph unicode="&#xe1;" horiz-adv-x="1044" d="M94 227q0 63 25.5 112t102.5 101.5t212 100.5q90 33 230 67v56q0 145 -43 196t-148 51q-53 0 -104 -10l-41 -143q-28 -99 -111 -99q-42 0 -66.5 24t-29.5 65q28 118 135.5 188t263.5 70q164 0 241 -84t77 -277v-438q0 -121 67 -121q37 0 76 35l10 12l41 -45 q-33 -61 -73 -84.5t-93 -23.5q-84 0 -134 41t-64 112q-90 -90 -152 -127t-147 -37q-118 0 -196.5 68.5t-78.5 189.5zM276 260q0 -66 39 -108q48 -48 125 -48q48 0 89.5 21.5t134.5 89.5v315q-87 -22 -187 -59q-64 -25 -106.5 -53t-62 -56.5t-26 -51.5t-6.5 -50zM428 1180 l178 280q54 90 115 90q33 0 55.5 -19.5t22.5 -55.5q0 -52 -72 -117l-246 -219z" />
<glyph unicode="&#xe2;" horiz-adv-x="1044" d="M94 227q0 63 25.5 112t102.5 101.5t212 100.5q90 33 230 67v56q0 145 -43 196t-148 51q-53 0 -104 -10l-41 -143q-28 -99 -111 -99q-42 0 -66.5 24t-29.5 65q28 118 135.5 188t263.5 70q164 0 241 -84t77 -277v-438q0 -121 67 -121q37 0 76 35l10 12l41 -45 q-33 -61 -73 -84.5t-93 -23.5q-84 0 -134 41t-64 112q-90 -90 -152 -127t-147 -37q-118 0 -196.5 68.5t-78.5 189.5zM221 1182l271 360h69l270 -360l-49 -43l-256 217l-256 -217zM276 260q0 -66 39 -108q48 -48 125 -48q48 0 89.5 21.5t134.5 89.5v315q-87 -22 -187 -59 q-64 -25 -106.5 -53t-62 -56.5t-26 -51.5t-6.5 -50z" />
<glyph unicode="&#xe3;" horiz-adv-x="1044" d="M94 227q0 63 25.5 112t102.5 101.5t212 100.5q90 33 230 67v56q0 145 -43 196t-148 51q-53 0 -104 -10l-41 -143q-28 -99 -111 -99q-42 0 -66.5 24t-29.5 65q28 118 135.5 188t263.5 70q164 0 241 -84t77 -277v-438q0 -121 67 -121q37 0 76 35l10 12l41 -45 q-33 -61 -73 -84.5t-93 -23.5q-84 0 -134 41t-64 112q-90 -90 -152 -127t-147 -37q-118 0 -196.5 68.5t-78.5 189.5zM160 1245q0 102 56 163.5t140 61.5q82 0 176 -88q43 -43 73 -62.5t61 -19.5q42 0 69 36.5t27 109.5h69q5 -30 5 -47q0 -103 -56.5 -164t-140.5 -61 q-85 0 -176 88q-45 43 -73 61t-58 18q-44 0 -71.5 -35.5t-27.5 -109.5h-69q-4 28 -4 49zM276 260q0 -66 39 -108q48 -48 125 -48q48 0 89.5 21.5t134.5 89.5v315q-87 -22 -187 -59q-64 -25 -106.5 -53t-62 -56.5t-26 -51.5t-6.5 -50z" />
<glyph unicode="&#xe4;" horiz-adv-x="1044" d="M94 227q0 63 25.5 112t102.5 101.5t212 100.5q90 33 230 67v56q0 145 -43 196t-148 51q-53 0 -104 -10l-41 -143q-28 -99 -111 -99q-42 0 -66.5 24t-29.5 65q28 118 135.5 188t263.5 70q164 0 241 -84t77 -277v-438q0 -121 67 -121q37 0 76 35l10 12l41 -45 q-33 -61 -73 -84.5t-93 -23.5q-84 0 -134 41t-64 112q-90 -90 -152 -127t-147 -37q-118 0 -196.5 68.5t-78.5 189.5zM188 1313q0 49 33.5 80.5t83.5 31.5q49 0 84 -32t35 -80q0 -47 -35.5 -79t-83.5 -32q-50 0 -83.5 32t-33.5 79zM276 260q0 -66 39 -108q48 -48 125 -48 q48 0 89.5 21.5t134.5 89.5v315q-87 -22 -187 -59q-64 -25 -106.5 -53t-62 -56.5t-26 -51.5t-6.5 -50zM600 1313q0 48 35 80t84 32q50 0 83.5 -31.5t33.5 -80.5q0 -47 -33.5 -79t-83.5 -32q-48 0 -83.5 32t-35.5 79z" />
<glyph unicode="&#xe5;" horiz-adv-x="1044" d="M94 227q0 63 25.5 112t102.5 101.5t212 100.5q90 33 230 67v56q0 145 -43 196t-148 51q-53 0 -104 -10l-41 -143q-28 -99 -111 -99q-42 0 -66.5 24t-29.5 65q28 118 135.5 188t263.5 70q164 0 241 -84t77 -277v-438q0 -121 67 -121q37 0 76 35l10 12l41 -45 q-33 -61 -73 -84.5t-93 -23.5q-84 0 -134 41t-64 112q-90 -90 -152 -127t-147 -37q-118 0 -196.5 68.5t-78.5 189.5zM276 260q0 -66 39 -108q48 -48 125 -48q48 0 89.5 21.5t134.5 89.5v315q-87 -22 -187 -59q-64 -25 -106.5 -53t-62 -56.5t-26 -51.5t-6.5 -50zM309 1313 q0 92 64 149.5t151 57.5q88 0 151.5 -56t63.5 -151q0 -94 -63.5 -151.5t-151.5 -57.5t-151.5 56t-63.5 153zM408 1313q0 -51 31 -89t85 -38q53 0 85 38.5t32 88.5q0 51 -31.5 88t-85.5 37q-53 0 -84.5 -37.5t-31.5 -87.5z" />
<glyph unicode="&#xe6;" horiz-adv-x="1605" d="M94 227q0 63 25.5 112t102.5 101.5t212 100.5q113 41 230 67v56q0 143 -43 195t-142 52q-59 0 -110 -10l-41 -143q-28 -99 -113 -99q-40 0 -64.5 24t-29.5 65q28 118 135 188t262 70q212 0 279 -162q137 162 327 162q167 0 276 -107.5t109 -290.5q0 -61 -14 -112h-655 q1 -186 91.5 -291t242.5 -105q91 0 157 38t125 110l49 -39q-56 -113 -155.5 -176.5t-237.5 -63.5q-125 0 -222.5 51.5t-156.5 147.5l-45 -41q-101 -92 -164 -125t-153 -33q-119 0 -198 68.5t-79 189.5zM276 260q0 -66 39 -108q48 -48 125 -48q59 0 105 21.5t133 85.5l24 18 q-47 109 -47 254q0 31 2 47q-92 -26 -180 -59q-64 -25 -106.5 -53t-62 -56.5t-26 -51.5t-6.5 -50zM844 584h375q67 0 93.5 27.5t26.5 78.5q0 90 -64.5 155.5t-158.5 65.5q-45 0 -88 -18t-81.5 -55t-66 -102.5t-36.5 -151.5z" />
<glyph unicode="&#xe7;" horiz-adv-x="999" d="M96 483q0 118 39.5 218t105 165.5t150.5 102.5t178 37q139 0 241.5 -76t121.5 -191q-15 -77 -94 -77q-90 0 -111 98l-37 135q-52 16 -110 16q-136 0 -220 -107.5t-84 -299.5q0 -191 90 -297.5t238 -106.5q88 0 162 42t121 118l51 -27q-40 -122 -130.5 -189.5 t-223.5 -74.5l-11 -88q83 -13 135 -55.5t52 -112.5q0 -74 -60 -120t-170 -46q-65 0 -129 19l15 63q50 -6 100 -6q57 0 87 25t30 69q0 46 -35.5 71t-110.5 34l23 149q-191 15 -302.5 153t-111.5 359z" />
<glyph unicode="&#xe8;" horiz-adv-x="1044" d="M96 477q0 152 64 274t171.5 188.5t235.5 66.5q166 0 274.5 -107t108.5 -289q0 -63 -14 -114h-655q3 -187 92 -291.5t239 -104.5q92 0 158 37.5t127 110.5l49 -39q-55 -113 -156 -176.5t-237 -63.5q-208 0 -332.5 137t-124.5 371zM285 584h372q68 0 95.5 28t27.5 78 q0 89 -64.5 155t-156.5 66q-99 0 -178.5 -81t-95.5 -246zM287 1475q0 36 22.5 55.5t55.5 19.5q59 0 116 -90l176 -280l-53 -41l-246 219q-71 64 -71 117z" />
<glyph unicode="&#xe9;" horiz-adv-x="1044" d="M96 477q0 152 64 274t171.5 188.5t235.5 66.5q166 0 274.5 -107t108.5 -289q0 -63 -14 -114h-655q3 -187 92 -291.5t239 -104.5q92 0 158 37.5t127 110.5l49 -39q-55 -113 -156 -176.5t-237 -63.5q-208 0 -332.5 137t-124.5 371zM285 584h372q68 0 95.5 28t27.5 78 q0 89 -64.5 155t-156.5 66q-99 0 -178.5 -81t-95.5 -246zM440 1180l178 280q54 90 115 90q33 0 55.5 -19.5t22.5 -55.5q0 -52 -72 -117l-245 -219z" />
<glyph unicode="&#xea;" horiz-adv-x="1044" d="M96 477q0 152 64 274t171.5 188.5t235.5 66.5q166 0 274.5 -107t108.5 -289q0 -63 -14 -114h-655q3 -187 92 -291.5t239 -104.5q92 0 158 37.5t127 110.5l49 -39q-55 -113 -156 -176.5t-237 -63.5q-208 0 -332.5 137t-124.5 371zM240 1182l270 360h70l270 -360l-49 -43 l-256 217l-256 -217zM285 584h372q68 0 95.5 28t27.5 78q0 89 -64.5 155t-156.5 66q-99 0 -178.5 -81t-95.5 -246z" />
<glyph unicode="&#xeb;" horiz-adv-x="1044" d="M96 477q0 152 64 274t171.5 188.5t235.5 66.5q166 0 274.5 -107t108.5 -289q0 -63 -14 -114h-655q3 -187 92 -291.5t239 -104.5q92 0 158 37.5t127 110.5l49 -39q-55 -113 -156 -176.5t-237 -63.5q-208 0 -332.5 137t-124.5 371zM227 1313q0 49 33.5 80.5t83.5 31.5 q49 0 84 -32t35 -80q0 -47 -35.5 -79t-83.5 -32q-50 0 -83.5 32t-33.5 79zM285 584h372q68 0 95.5 28t27.5 78q0 89 -64.5 155t-156.5 66q-99 0 -178.5 -81t-95.5 -246zM639 1313q0 48 35 80t84 32q50 0 83 -31.5t33 -80.5q0 -47 -33.5 -79t-82.5 -32q-48 0 -83.5 32 t-35.5 79z" />
<glyph unicode="&#xec;" horiz-adv-x="610" d="M51 1475q0 36 22.5 55.5t55.5 19.5q60 0 117 -90l176 -280l-53 -41l-246 219q-72 65 -72 117zM61 809v72l316 125l31 -21l-7 -278v-277q0 -73 5 -328l141 -28v-74h-475v74l153 28q4 204 4 328v102q0 136 -6 259z" />
<glyph unicode="&#xed;" horiz-adv-x="610" d="M61 809v72l316 125l31 -21l-7 -278v-277q0 -73 5 -328l141 -28v-74h-475v74l153 28q4 204 4 328v102q0 136 -6 259zM199 1180l178 280q54 90 115 90q33 0 55 -19.5t22 -55.5q0 -53 -71 -117l-246 -219z" />
<glyph unicode="&#xee;" horiz-adv-x="610" d="M8 1182l271 360h69l270 -360l-49 -43l-256 217l-256 -217zM61 809v72l316 125l31 -21l-7 -278v-277q0 -73 5 -328l141 -28v-74h-475v74l153 28q4 204 4 328v102q0 136 -6 259z" />
<glyph unicode="&#xef;" horiz-adv-x="610" d="M-31 1313q0 49 33.5 80.5t83.5 31.5q49 0 84 -32t35 -80q0 -47 -35.5 -79t-83.5 -32q-50 0 -83.5 32t-33.5 79zM61 809v72l316 125l31 -21l-7 -278v-277q0 -73 5 -328l141 -28v-74h-475v74l153 28q4 204 4 328v102q0 136 -6 259zM381 1313q0 48 35 80t84 32 q50 0 83 -31.5t33 -80.5q0 -47 -33.5 -79t-82.5 -32q-48 0 -83.5 32t-35.5 79z" />
<glyph unicode="&#xf0;" horiz-adv-x="1116" d="M92 475q0 115 38.5 210.5t103 156t145 94t166.5 33.5q169 0 260 -105q-67 217 -193 357l-288 -148l-39 78l264 135q-88 81 -240 180l41 68q176 -83 307 -193l310 160l39 -78l-281 -143q287 -290 287 -711q0 -281 -125 -440.5t-350 -159.5q-86 0 -165.5 33.5t-142 95 t-100 159.5t-37.5 218zM285 465q0 -195 71 -299.5t199 -104.5q136 0 204 106.5t68 305.5q0 198 -71.5 299.5t-200.5 101.5q-133 0 -201.5 -105t-68.5 -304z" />
<glyph unicode="&#xf1;" horiz-adv-x="1243" d="M72 809v72l284 125l31 -21l16 -166q77 85 175 136t194 51q134 0 198 -90.5t64 -288.5v-197q0 -124 4 -328l144 -28v-74h-475v74l151 28q4 200 4 328v180q0 138 -38 194t-130 56q-71 0 -137 -30.5t-145 -98.5v-301q0 -124 4 -328l143 -28v-74h-475v74l152 28q4 204 4 328 v105q0 113 -7 256zM283 1245q0 102 56 163.5t140 61.5q82 0 176 -88q43 -43 73 -62.5t60 -19.5q43 0 70 36.5t27 109.5h69q4 -24 4 -47q0 -103 -56 -164t-140 -61q-85 0 -176 88q-45 43 -73 61t-58 18q-44 0 -71.5 -35.5t-27.5 -109.5h-69q-4 28 -4 49z" />
<glyph unicode="&#xf2;" horiz-adv-x="1124" d="M92 483q0 123 40 224.5t106.5 165.5t150 98.5t174.5 34.5q71 0 139.5 -21.5t128.5 -65t105 -105t71.5 -147t26.5 -184.5q0 -122 -40 -222t-106.5 -162.5t-150 -96t-174.5 -33.5t-175 33.5t-150.5 96t-106 162.5t-39.5 222zM285 483q0 -205 72 -313.5t206 -108.5 q133 0 205 109t72 313q0 206 -72.5 317t-204.5 111q-134 0 -206 -110.5t-72 -317.5zM303 1475q0 36 22.5 55.5t55.5 19.5q60 0 117 -90l176 -280l-53 -41l-246 219q-72 65 -72 117z" />
<glyph unicode="&#xf3;" horiz-adv-x="1124" d="M92 483q0 123 40 224.5t106.5 165.5t150 98.5t174.5 34.5q71 0 139.5 -21.5t128.5 -65t105 -105t71.5 -147t26.5 -184.5q0 -122 -40 -222t-106.5 -162.5t-150 -96t-174.5 -33.5t-175 33.5t-150.5 96t-106 162.5t-39.5 222zM285 483q0 -205 72 -313.5t206 -108.5 q133 0 205 109t72 313q0 206 -72.5 317t-204.5 111q-134 0 -206 -110.5t-72 -317.5zM459 1180l178 280q54 90 115 90q33 0 55 -19.5t22 -55.5q0 -53 -71 -117l-246 -219z" />
<glyph unicode="&#xf4;" horiz-adv-x="1124" d="M92 483q0 123 40 224.5t106.5 165.5t150 98.5t174.5 34.5q71 0 139.5 -21.5t128.5 -65t105 -105t71.5 -147t26.5 -184.5q0 -122 -40 -222t-106.5 -162.5t-150 -96t-174.5 -33.5t-175 33.5t-150.5 96t-106 162.5t-39.5 222zM258 1182l270 360h70l270 -360l-49 -43 l-256 217l-256 -217zM285 483q0 -205 72 -313.5t206 -108.5q133 0 205 109t72 313q0 206 -72.5 317t-204.5 111q-134 0 -206 -110.5t-72 -317.5z" />
<glyph unicode="&#xf5;" horiz-adv-x="1124" d="M92 483q0 123 40 224.5t106.5 165.5t150 98.5t174.5 34.5q71 0 139.5 -21.5t128.5 -65t105 -105t71.5 -147t26.5 -184.5q0 -122 -40 -222t-106.5 -162.5t-150 -96t-174.5 -33.5t-175 33.5t-150.5 96t-106 162.5t-39.5 222zM225 1245q0 102 56.5 163.5t140.5 61.5 q82 0 176 -88q43 -43 73 -62.5t60 -19.5q42 0 69 36.5t27 109.5h70q4 -24 4 -47q0 -103 -56 -164t-140 -61q-86 0 -177 88q-45 43 -73 61t-58 18q-44 0 -71 -35.5t-27 -109.5h-70q-4 28 -4 49zM285 483q0 -205 72 -313.5t206 -108.5q133 0 205 109t72 313q0 206 -72.5 317 t-204.5 111q-134 0 -206 -110.5t-72 -317.5z" />
<glyph unicode="&#xf6;" horiz-adv-x="1124" d="M92 483q0 123 40 224.5t106.5 165.5t150 98.5t174.5 34.5q71 0 139.5 -21.5t128.5 -65t105 -105t71.5 -147t26.5 -184.5q0 -122 -40 -222t-106.5 -162.5t-150 -96t-174.5 -33.5t-175 33.5t-150.5 96t-106 162.5t-39.5 222zM240 1313q0 49 33 80.5t83 31.5q49 0 84 -32 t35 -80q0 -47 -35.5 -79t-83.5 -32q-49 0 -82.5 32t-33.5 79zM285 483q0 -205 72 -313.5t206 -108.5q133 0 205 109t72 313q0 206 -72.5 317t-204.5 111q-134 0 -206 -110.5t-72 -317.5zM651 1313q0 48 35 80t84 32q50 0 83.5 -31.5t33.5 -80.5q0 -47 -33.5 -79t-83.5 -32 q-48 0 -83.5 32t-35.5 79z" />
<glyph unicode="&#xf7;" horiz-adv-x="1085" d="M59 616v119h967v-119h-967zM403 274q0 60 40.5 98t99.5 38q58 0 98.5 -38t40.5 -98q0 -59 -40.5 -98t-98.5 -39t-99 39t-41 98zM403 1077q0 60 41 98.5t99 38.5t98.5 -38.5t40.5 -98.5q0 -59 -40.5 -97t-98.5 -38t-99 38t-41 97z" />
<glyph unicode="&#xf8;" horiz-adv-x="1124" d="M92 483q0 123 40 224.5t106.5 165.5t150 98.5t174.5 34.5q152 0 277 -93l88 111l67 -51l-94 -117q133 -143 133 -373q0 -122 -40 -222t-106.5 -162.5t-150 -96t-174.5 -33.5q-168 0 -295 103l-90 -113l-67 53l96 121q-115 138 -115 350zM285 483q0 -127 28 -219l445 551 q-72 96 -195 96q-134 0 -206 -110.5t-72 -317.5zM352 176q71 -115 211 -115q133 0 205 109t72 313q0 152 -39 250z" />
<glyph unicode="&#xf9;" horiz-adv-x="1196" d="M51 885v71l301 29l21 -20l-11 -287v-318q0 -133 39.5 -189t124.5 -56q145 0 287 133l6 606l-145 31v71l297 29l20 -20l-6 -287v-574l141 -30v-74l-284 -20l-23 182q-159 -193 -362 -193q-131 0 -199.5 87t-67.5 282l7 516zM309 1475q0 36 22.5 55.5t55.5 19.5 q60 0 117 -90l176 -280l-53 -41l-246 219q-72 65 -72 117z" />
<glyph unicode="&#xfa;" horiz-adv-x="1196" d="M51 885v71l301 29l21 -20l-11 -287v-318q0 -133 39.5 -189t124.5 -56q145 0 287 133l6 606l-145 31v71l297 29l20 -20l-6 -287v-574l141 -30v-74l-284 -20l-23 182q-159 -193 -362 -193q-131 0 -199.5 87t-67.5 282l7 516zM463 1180l178 280q54 90 115 90 q33 0 55.5 -19.5t22.5 -55.5q0 -52 -72 -117l-246 -219z" />
<glyph unicode="&#xfb;" horiz-adv-x="1196" d="M51 885v71l301 29l21 -20l-11 -287v-318q0 -133 39.5 -189t124.5 -56q145 0 287 133l6 606l-145 31v71l297 29l20 -20l-6 -287v-574l141 -30v-74l-284 -20l-23 182q-159 -193 -362 -193q-131 0 -199.5 87t-67.5 282l7 516zM274 1182l271 360h69l271 -360l-49 -43 l-256 217l-256 -217z" />
<glyph unicode="&#xfc;" horiz-adv-x="1196" d="M51 885v71l301 29l21 -20l-11 -287v-318q0 -133 39.5 -189t124.5 -56q145 0 287 133l6 606l-145 31v71l297 29l20 -20l-6 -287v-574l141 -30v-74l-284 -20l-23 182q-159 -193 -362 -193q-131 0 -199.5 87t-67.5 282l7 516zM272 1313q0 49 33.5 80.5t83.5 31.5 q49 0 84 -32t35 -80q0 -47 -35.5 -79t-83.5 -32q-50 0 -83.5 32t-33.5 79zM684 1313q0 48 35 80t84 32q50 0 83.5 -31.5t33.5 -80.5q0 -47 -33.5 -79t-83.5 -32q-48 0 -83.5 32t-35.5 79z" />
<glyph unicode="&#xfd;" horiz-adv-x="1040" d="M-8 -371q10 41 48.5 63.5t86.5 22.5q40 0 75 -18t81 -62l6 -6q62 52 107 128.5t87 187.5l-368 921l-119 19v84h493v-86l-178 -21l254 -682l232 680l-176 25v84h399v-84l-115 -25l-307 -852q-99 -274 -196 -395t-222 -121q-78 0 -133 38.5t-55 98.5zM418 1180l178 280 q54 90 115 90q33 0 55 -19.5t22 -55.5q0 -53 -71 -117l-246 -219z" />
<glyph unicode="&#xfe;" horiz-adv-x="1132" d="M12 -416l164 29q4 222 4 330v1366l-168 20v72l316 92l28 -16l-8 -291v-326q137 146 303 146q167 0 278 -139t111 -371q0 -234 -118.5 -380.5t-300.5 -146.5q-161 0 -273 131v-157q0 -110 4 -328l187 -31v-71h-527v71zM354 190q116 -104 232 -104q117 0 194.5 102 t77.5 291q0 193 -71 301.5t-189 108.5q-109 0 -244 -109v-590z" />
<glyph unicode="&#xff;" horiz-adv-x="1040" d="M-8 -371q10 41 48.5 63.5t86.5 22.5q40 0 75 -18t81 -62l6 -6q62 52 107 128.5t87 187.5l-368 921l-119 19v84h493v-86l-178 -21l254 -682l232 680l-176 25v84h399v-84l-115 -25l-307 -852q-99 -274 -196 -395t-222 -121q-78 0 -133 38.5t-55 98.5zM238 1313 q0 49 33 80.5t83 31.5q49 0 84 -32t35 -80q0 -47 -35.5 -79t-83.5 -32q-49 0 -82.5 32t-33.5 79zM649 1313q0 48 35 80t84 32q50 0 83.5 -31.5t33.5 -80.5q0 -47 -33.5 -79t-83.5 -32q-48 0 -83.5 32t-35.5 79z" />
<glyph unicode="&#x152;" horiz-adv-x="1921" d="M96 684q0 167 55 304t149 226.5t217.5 138t262.5 48.5q128 0 283 -31h731l14 -364h-116l-45 260h-482q-4 -170 -4 -518h301l29 196h94v-485h-94l-27 192h-303q0 -373 4 -549h523l45 263h116l-14 -365h-772q-155 -31 -283 -31q-139 0 -262.5 48t-217.5 137t-149 226 t-55 304zM317 684q0 -96 15.5 -184t50.5 -166.5t86.5 -136t128 -91.5t170.5 -34t195 34q4 172 4 529v100q0 353 -4 529q-95 32 -195 32q-94 0 -170.5 -34t-128 -91.5t-86.5 -136t-50.5 -166.5t-15.5 -184z" />
<glyph unicode="&#x153;" horiz-adv-x="1779" d="M92 483q0 123 40 224.5t106.5 165.5t150 98.5t174.5 34.5q105 0 207.5 -53.5t163.5 -147.5q62 92 160 146.5t204 54.5q167 0 276 -107.5t109 -290.5q0 -61 -14 -112h-655q1 -186 91.5 -291t242.5 -105q172 0 282 148l49 -39q-57 -117 -157 -178.5t-236 -61.5 q-120 0 -212 49.5t-148 141.5q-64 -91 -163 -141t-202 -50q-91 0 -174 33.5t-149.5 96t-106 162.5t-39.5 222zM285 483q0 -205 72 -313.5t206 -108.5q133 0 205 109t72 313q0 206 -72.5 317t-204.5 111q-134 0 -206 -110.5t-72 -317.5zM1018 584h375q67 0 93.5 26.5 t26.5 79.5q0 91 -63.5 156t-159.5 65q-45 0 -88 -18t-81.5 -55.5t-66 -102.5t-36.5 -151z" />
<glyph unicode="&#x178;" horiz-adv-x="1292" d="M29 1286v84h577v-84l-194 -22l284 -619l293 617l-184 24v84h467v-84l-178 -26l-349 -717v-64q0 -189 5 -373l208 -22v-84h-618v84l209 22q4 145 4 373v53l-363 736zM340 1622q0 48 35.5 80.5t83.5 32.5q50 0 83 -32t33 -81q0 -47 -33.5 -80t-82.5 -33q-48 0 -83.5 33 t-35.5 80zM799 1622q0 49 33 81t83 32q48 0 83.5 -32.5t35.5 -80.5q0 -47 -35.5 -80t-83.5 -33q-49 0 -82.5 33t-33.5 80z" />
<glyph unicode="&#x2c6;" horiz-adv-x="819" d="M104 1182l271 360h69l271 -360l-49 -43l-256 217l-256 -217z" />
<glyph unicode="&#x2dc;" horiz-adv-x="819" d="M76 1245q0 102 56 163.5t140 61.5q83 0 177 -88q43 -43 73 -62.5t60 -19.5q42 0 69 36.5t27 109.5h70q4 -24 4 -47q0 -103 -56.5 -164t-140.5 -61q-85 0 -176 88q-45 43 -73 61t-58 18q-44 0 -71 -35.5t-27 -109.5h-70q-4 28 -4 49z" />
<glyph unicode="&#x2000;" horiz-adv-x="930" />
<glyph unicode="&#x2001;" horiz-adv-x="1860" />
<glyph unicode="&#x2002;" horiz-adv-x="930" />
<glyph unicode="&#x2003;" horiz-adv-x="1860" />
<glyph unicode="&#x2004;" horiz-adv-x="620" />
<glyph unicode="&#x2005;" horiz-adv-x="465" />
<glyph unicode="&#x2006;" horiz-adv-x="310" />
<glyph unicode="&#x2007;" horiz-adv-x="310" />
<glyph unicode="&#x2008;" horiz-adv-x="232" />
<glyph unicode="&#x2009;" horiz-adv-x="372" />
<glyph unicode="&#x200a;" horiz-adv-x="103" />
<glyph unicode="&#x2010;" horiz-adv-x="638" d="M82 446v136h475v-136h-475z" />
<glyph unicode="&#x2011;" horiz-adv-x="638" d="M82 446v136h475v-136h-475z" />
<glyph unicode="&#x2012;" horiz-adv-x="638" d="M82 446v136h475v-136h-475z" />
<glyph unicode="&#x2013;" horiz-adv-x="1048" d="M82 446v136h885v-136h-885z" />
<glyph unicode="&#x2014;" horiz-adv-x="1662" d="M82 446v136h1499v-136h-1499z" />
<glyph unicode="&#x2018;" horiz-adv-x="434" d="M76 1094q0 127 79 244.5t201 195.5l39 -55q-78 -62 -122 -115t-76 -131l57 -53q82 -69 82 -152q0 -60 -32 -90.5t-89 -30.5q-64 0 -111 41q-28 79 -28 146z" />
<glyph unicode="&#x2019;" horiz-adv-x="434" d="M39 963q79 63 123 115t76 130l-58 54q-82 69 -82 151q0 60 32 90.5t89 30.5q64 0 111 -41q28 -79 28 -145q0 -127 -79.5 -245t-200.5 -196z" />
<glyph unicode="&#x201a;" horiz-adv-x="434" d="M39 -266q78 62 122.5 115t76.5 131l-58 53q-82 69 -82 151q0 60 32 90.5t89 30.5q64 0 111 -41q28 -79 28 -145q0 -127 -79.5 -245t-200.5 -196z" />
<glyph unicode="&#x201c;" horiz-adv-x="849" d="M76 1094q0 127 79 244.5t201 195.5l39 -55q-78 -62 -122 -115t-76 -131l57 -53q82 -69 82 -152q0 -60 -32 -90.5t-89 -30.5q-64 0 -111 41q-28 79 -28 146zM492 1094q0 127 79 244.5t201 195.5l39 -55q-78 -62 -122.5 -115t-76.5 -131l58 -53q82 -69 82 -152 q0 -60 -32 -90.5t-89 -30.5q-64 0 -111 41q-28 79 -28 146z" />
<glyph unicode="&#x201d;" horiz-adv-x="849" d="M39 963q79 63 123 115t76 130l-58 54q-82 69 -82 151q0 60 32 90.5t89 30.5q64 0 111 -41q28 -79 28 -145q0 -127 -79.5 -245t-200.5 -196zM455 963q78 62 122 114.5t76 130.5l-57 54q-82 69 -82 151q0 60 32 90.5t89 30.5q63 0 110 -41q29 -82 29 -145 q0 -127 -79.5 -245t-200.5 -196z" />
<glyph unicode="&#x201e;" horiz-adv-x="849" d="M39 -266q78 62 122.5 115t76.5 131l-58 53q-82 69 -82 151q0 60 32 90.5t89 30.5q64 0 111 -41q28 -79 28 -145q0 -127 -79.5 -245t-200.5 -196zM455 -266q78 62 122 115t76 131l-57 53q-82 69 -82 151q0 60 32 90.5t89 30.5q63 0 110 -41q29 -82 29 -145 q0 -127 -79.5 -245t-200.5 -196z" />
<glyph unicode="&#x2022;" horiz-adv-x="624" d="M84 676q0 102 67.5 168.5t161.5 66.5q93 0 160.5 -66.5t67.5 -168.5q0 -103 -67.5 -169.5t-160.5 -66.5q-95 0 -162 66.5t-67 169.5z" />
<glyph unicode="&#x2026;" horiz-adv-x="1966" d="M162 115q0 62 42 104.5t103 42.5t103.5 -42.5t42.5 -104.5q0 -60 -42.5 -103t-103.5 -43t-103 43t-42 103zM838 115q0 62 42 104.5t103 42.5t103 -42.5t42 -104.5q0 -60 -42 -103t-103 -43t-103 43t-42 103zM1513 115q0 62 42.5 104.5t103.5 42.5t103 -42.5t42 -104.5 q0 -60 -42 -103t-103 -43t-103.5 43t-42.5 103z" />
<glyph unicode="&#x202f;" horiz-adv-x="372" />
<glyph unicode="&#x2039;" horiz-adv-x="577" d="M61 461v112l414 357l51 -58l-305 -354l305 -356l-51 -58z" />
<glyph unicode="&#x203a;" horiz-adv-x="577" d="M51 162l305 356l-305 354l51 58l414 -357v-112l-414 -357z" />
<glyph unicode="&#x205f;" horiz-adv-x="465" />
<glyph unicode="&#x20ac;" d="M23 479v105h108q-2 25 -2 75q0 42 2 62h-108v102h118q35 244 173.5 385.5t342.5 141.5q143 0 234 -73t110 -194q-9 -35 -37 -54t-63 -19q-40 0 -69 31t-50 106l-30 106q-25 4 -62 4q-143 0 -237 -112t-121 -322h456v-102h-464q-2 -20 -2 -62q0 -50 2 -75h464v-105h-454 q28 -201 120.5 -309.5t233.5 -108.5q18 0 62 7l26 102q33 137 127 137q35 0 59.5 -17.5t30.5 -51.5q-18 -120 -113 -194.5t-239 -74.5q-197 0 -329 135.5t-169 374.5h-120z" />
<glyph unicode="&#x2122;" horiz-adv-x="1478" d="M25 1196l4 174h536l4 -174h-69l-17 115h-121v-475l84 -11v-57h-301v57l84 11v475h-120l-17 -115h-67zM635 768v57l80 13v469l-70 6v57h182l201 -414l193 414h196v-57l-74 -6v-473l74 -9v-57h-282v57l75 9v383l-202 -449h-35l-199 434v-364l80 -13v-57h-219z" />
<glyph unicode="&#x25fc;" horiz-adv-x="972" d="M0 0v973h973v-973h-973z" />
</font>
</defs>
</svg>
